<svg width="220" height="120" viewBox="0 0 220 120" fill="none" xmlns="http://www.w3.org/2000/svg">
<g clip-path="url(#clip0_1_210)">
<g opacity="0.3">
<g clip-path="url(#clip1_1_210)">
<path d="M144.2 39.1C145.3 40.2 146.8 40.9 148.5 40.9C150.2 40.9 151.7 40.2 152.8 39.1C153.9 38 154.6 36.5 154.6 34.8C154.6 33.1 153.9 31.6 152.8 30.5C151.7 29.4 150.2 28.7 148.5 28.7C146.9 28.7 145.4 29.3 144.3 30.4C144.3 30.4 144.2 30.4 144.2 30.5C143.1 31.6 142.4 33.1 142.4 34.8C142.4 36.5 143.1 38 144.2 39.1ZM145.9 32.4C146 32.3 146 32.4 145.9 32.4C146.6 31.7 147.5 31.4 148.4 31.4C149.4 31.4 150.3 31.8 150.9 32.4C151.5 33 151.9 33.9 151.9 34.9C151.9 35.9 151.5 36.8 150.9 37.4C150.3 38 149.4 38.4 148.4 38.4C147.4 38.4 146.5 38 145.9 37.4C145.3 36.8 144.9 35.9 144.9 34.9C144.9 33.9 145.3 33 145.9 32.4ZM66.3 39.1C67.4 40.2 68.9 40.9 70.6 40.9C72.3 40.9 73.8 40.2 74.9 39.1C74.9 39.1 74.9 39 75 39C76.1 37.9 76.7 36.4 76.7 34.8C76.7 33.1 76 31.6 74.9 30.5C73.8 29.4 72.3 28.7 70.6 28.7C68.9 28.7 67.4 29.4 66.3 30.5C65.2 31.6 64.5 33.1 64.5 34.8C64.5 36.5 65.2 38 66.3 39.1ZM68.1 32.4C68.7 31.8 69.6 31.4 70.6 31.4C71.6 31.4 72.5 31.8 73.1 32.4C73.7 33 74.1 33.9 74.1 34.9C74.1 35.8 73.7 36.7 73.1 37.3C73.1 37.3 73.1 37.3 73 37.4C72.4 38 71.5 38.4 70.5 38.4C69.5 38.4 68.6 38 68 37.4C67.4 36.8 67 35.9 67 34.9C67 33.9 67.4 33 68.1 32.4ZM105.2 33.8C106.3 34.9 107.8 35.6 109.5 35.6C111.2 35.6 112.7 34.9 113.8 33.8C114.9 32.7 115.6 31.2 115.6 29.5C115.6 27.8 114.9 26.3 113.8 25.2C112.7 24.2 111.2 23.5 109.5 23.5C107.9 23.5 106.4 24.1 105.3 25.2C105.3 25.2 105.2 25.2 105.2 25.3C104.1 26.4 103.4 27.9 103.4 29.6C103.5 31.2 104.1 32.7 105.2 33.8ZM107 27C107.7 26.3 108.6 26 109.5 26C110.5 26 111.4 26.4 112 27C112.6 27.6 113 28.5 113 29.5C113 30.5 112.6 31.4 112 32C111.4 32.6 110.5 33 109.5 33C108.5 33 107.6 32.6 107 32C106.4 31.4 106 30.5 106 29.5C106 28.6 106.4 27.7 107 27ZM161.1 48C160 46.3 157.8 45 153.9 44.5C150.5 44.1 147.6 44.4 145.1 45.2C144.7 44.9 144.3 44.6 143.9 44.3C140.3 41.4 136.5 39.5 132.5 38.4C128.5 37.3 124.2 36.9 119.6 36.9C116 36.9 112.6 37.8 109.5 39.4C106.4 37.8 103 36.9 99.4 36.9C94.7 36.9 90.5 37.3 86.5 38.4C82.5 39.5 78.7 41.4 75.1 44.3C74.7 44.6 74.3 44.9 73.9 45.2C71.4 44.4 68.5 44.1 65.1 44.5C61.2 44.9 59 46.3 57.9 48C57.3 48.9 57 49.9 57 50.8C57 51.7 57.1 52.6 57.4 53.4C58 54.8 59.1 55.9 60.2 56.1C61.7 56.3 64.1 55.3 67 53.4C69.1 52 71.6 50.2 74.3 48.2C75 48.5 75.6 48.8 76.2 49.2C79 50.9 81.2 53.3 83.2 55.9C85.2 58.5 86.3 60.8 87 63C87.7 65.2 87.8 67.2 87.9 69.1C87.9 70.3 87.9 71.3 87.7 71.9C87.4 71.7 86.9 71.2 86.4 70.5C85.7 69.6 85 68.6 84.3 67.6C81.6 63.9 79 60.2 77 61.2C75.2 62.1 75.7 65.2 76.2 68.2C76.3 68.9 76.4 69.6 76.5 70.2C76.6 71.1 76.5 72.1 76.2 72.7C75.8 72.4 75.3 71.6 74.6 70.2C71.9 64.2 71.6 59.6 71.6 59.6C71.5 58.9 70.9 58.4 70.3 58.4C69.6 58.5 69.1 59.1 69.1 59.7C69.1 59.7 69.5 64.7 72.4 71.2C73.3 73.3 74.3 74.5 75.1 75C75.8 75.4 76.5 75.4 77.1 75.2C77.6 75 78.1 74.6 78.4 74C79 73 79.2 71.4 79 69.9C78.9 69.2 78.8 68.5 78.7 67.8C78.3 65.7 78 63.5 78.2 63.5C78.2 63.5 80.2 66.3 82.3 69.1C83.1 70.1 83.8 71.2 84.5 72C85.4 73.2 86.2 73.9 86.9 74.3C87.6 74.6 88.3 74.6 88.9 74.3C89.4 74 89.8 73.6 90.1 72.9C90.5 72 90.6 70.6 90.6 69C90.5 66.9 90.3 64.7 89.6 62.3C88.9 59.9 87.6 57.2 85.4 54.4C83.2 51.6 80.9 48.9 77.7 47.1C77.4 46.9 77 46.7 76.7 46.6L76.8 46.5C80.1 43.8 83.6 42.1 87.3 41.1C91.1 40 95.1 39.7 99.5 39.7C102.1 39.7 104.6 40.3 107 41.2C103 43.8 99.8 47.6 97.8 51.7C97.5 52.3 97.3 52.9 97 53.6C95.6 57.7 95.5 62.8 96 67.1C96.6 71.6 98.1 75.3 99.9 76.2C100 76.3 100.1 76.3 100.2 76.3C102.7 77.1 104.4 74.8 105.5 71.4C106.5 68.6 107.1 65.1 107.6 62.5C108.3 58.6 109 58.6 109.6 58.6H109.8C110.4 58.6 111.1 58.6 111.8 62.5C112.3 65.1 112.9 68.6 113.9 71.4C115 74.8 116.7 77.1 119.2 76.3C119.3 76.3 119.4 76.2 119.5 76.2C121.3 75.3 122.8 71.6 123.4 67.1C124 62.8 123.8 57.7 122.4 53.6C122.2 52.9 121.9 52.3 121.6 51.7C119.6 47.5 116.4 43.8 112.4 41.2C114.8 40.2 117.3 39.7 119.9 39.7C124.3 39.7 128.4 40 132.1 41.1C135.8 42.1 139.3 43.9 142.6 46.5L142.7 46.6C142.4 46.8 142 47 141.7 47.1C138.5 49 136.1 51.6 134 54.4C131.8 57.2 130.5 59.9 129.8 62.3C129.1 64.7 128.9 67 128.8 69C128.7 70.6 128.9 72 129.3 72.9C129.6 73.5 130 74 130.5 74.3C131.1 74.6 131.8 74.6 132.5 74.3C133.2 74 134 73.2 134.9 72C135.6 71.1 136.3 70.1 137.1 69.1C139.1 66.3 141.2 63.5 141.2 63.5C141.4 63.6 141 65.7 140.7 67.8C140.6 68.5 140.5 69.2 140.4 69.9C140.2 71.3 140.5 72.9 141 74C141.3 74.6 141.8 75 142.3 75.2C142.9 75.4 143.6 75.4 144.3 75C145.2 74.5 146.1 73.4 147 71.2C149.9 64.8 150.3 59.8 150.3 59.7C150.4 59 149.8 58.4 149.1 58.4C148.4 58.3 147.8 58.9 147.8 59.6C147.8 59.6 147.4 64.2 144.8 70.2C144.2 71.6 143.6 72.4 143.2 72.7C142.9 72.1 142.7 71.1 142.9 70.2C143 69.6 143.1 68.9 143.2 68.2C143.7 65.2 144.2 62.2 142.4 61.2C140.5 60.2 137.8 63.9 135.1 67.6C134.4 68.6 133.7 69.6 133 70.5C132.5 71.2 132 71.7 131.7 71.9C131.5 71.3 131.4 70.3 131.5 69.1C131.6 67.2 131.7 65.2 132.4 63C133.1 60.8 134.2 58.5 136.2 55.9C138.2 53.3 140.4 50.8 143.2 49.2C143.8 48.8 144.5 48.5 145.1 48.2C147.8 50.3 150.2 52.1 152.4 53.4C155.4 55.3 157.8 56.4 159.2 56.1C160.3 55.9 161.4 54.9 162 53.4C162.3 52.6 162.5 51.8 162.4 50.8C162 49.9 161.7 48.9 161.1 48ZM65.7 51.2C63.2 52.8 61.4 53.7 60.6 53.6C60.3 53.6 60 53.1 59.7 52.4C59.5 51.9 59.4 51.4 59.4 50.9C59.4 50.4 59.6 49.9 59.9 49.4C60.6 48.3 62.2 47.4 65.2 47.1C67.5 46.9 69.4 46.9 71.2 47.3C69.3 48.8 67.4 50.2 65.7 51.2ZM119.2 52.6C119.4 53.1 119.7 53.7 119.9 54.2C121.1 57.9 121.3 62.6 120.8 66.6C120.3 70.3 119.4 73.3 118.3 73.8C117.6 74 116.9 72.5 116.2 70.5C115.3 67.9 114.7 64.5 114.2 62C113.1 56 111.3 56 109.7 56H109.5C107.9 56 106.1 56 105 62C104.6 64.5 103.9 67.9 103 70.5C102.3 72.5 101.6 74 100.9 73.8C99.9 73.3 98.9 70.4 98.4 66.6C97.9 62.6 98 57.9 99.3 54.2C99.5 53.6 99.7 53.1 100 52.6C101.8 48.8 104.7 45.5 108.3 43.1C108.7 42.8 109.2 42.5 109.6 42.3C110 42.6 110.5 42.8 110.9 43.1C114.4 45.5 117.4 48.9 119.2 52.6ZM159.2 52.4C158.9 53.1 158.6 53.5 158.3 53.6C157.5 53.7 155.7 52.8 153.2 51.2C151.5 50.1 149.6 48.7 147.5 47.2C149.3 46.9 151.2 46.8 153.5 47C156.5 47.3 158.1 48.3 158.8 49.3C159.1 49.8 159.3 50.3 159.3 50.8C159.5 51.5 159.4 52 159.2 52.4ZM122.5 88H125.7V96.4H128V88H131.2V86H122.5V88ZM75.9 92.1C75.9 93.6 75 94.5 73.6 94.5C72.2 94.5 71.2 93.6 71.2 92.1V86.1H68.9V92.1C68.9 94.8 70.7 96.5 73.6 96.5C76.5 96.5 78.3 94.8 78.3 92.1V86.1H76V92.1H75.9ZM109.9 96.4H112.2V86H109.9V96.4ZM96.4 92.7L91.4 86H89.3V96.4H91.5V89.8L96.5 96.4H98.6V86H96.4V92.7ZM145.2 90.7L142.5 86.1H140.1L143.9 93.2V96.5H146.2V93.2L150 86.2H147.6L145.2 90.7Z" fill="black"/>
</g>
</g>
</g>
<defs>
<clipPath id="clip0_1_210">
<rect width="190" height="73" fill="white" transform="translate(15 23.5)"/>
</clipPath>
<clipPath id="clip1_1_210">
<rect width="106" height="73" fill="white" transform="translate(57 23.5)"/>
</clipPath>
</defs>
</svg>
