<svg width="220" height="120" viewBox="0 0 220 120" fill="none" xmlns="http://www.w3.org/2000/svg">
<g opacity="0.3">
<g clip-path="url(#clip0_1_215)">
<path d="M70.7 66.9C70.2 66.9 69.5 66.6 69 66.2L68.6 67.1C69.2 67.6 70 67.9 70.8 67.9C71.9 67.9 72.7 67.4 72.7 66.4C72.7 64.6 70.1 65.1 70.1 64.2C70.1 63.9 70.4 63.8 70.7 63.8C71.1 63.8 71.7 64 72.2 64.3L72.6 63.4C72.1 63.1 71.4 62.9 70.7 62.9C69.6 62.9 68.8 63.5 68.8 64.4C68.8 66.2 71.4 65.6 71.4 66.5C71.4 66.8 71.2 66.9 70.7 66.9ZM85 65.4C85 63.9 83.9 62.9 82.4 62.9H80.3V67.9H82.3C83.9 67.8 85 66.8 85 65.4ZM81.5 63.8H82.5C83.3 63.8 84 64.4 84 65.3C84 66.2 83.4 66.8 82.6 66.8H81.6V63.8H81.5ZM66.7 66.9H64V65.8H66.4V64.9H64V63.8H66.6V62.9H62.9V67.9H66.7V66.9ZM74.3 63.8H75.8V67.8H76.9V63.8H78.4V62.9H74.3V63.8ZM142.4 67.9C143.8 67.9 144.5 67 144.5 65.4C144.5 63.8 143.7 62.9 142.4 62.9C141 62.9 140.3 63.8 140.3 65.4C140.2 67 141 67.9 142.4 67.9ZM142.4 63.7C143.1 63.7 143.4 64.2 143.4 65.3C143.4 66.5 143.1 67 142.4 67C141.7 67 141.4 66.5 141.4 65.3C141.4 64.2 141.7 63.7 142.4 63.7ZM137.3 65.8C137.8 65.2 138.2 64.7 138.2 64.2C138.2 63.4 137.5 62.9 136.6 62.9C135.9 62.9 135.3 63.2 134.7 63.6L135.1 64.4C135.5 64 136 63.8 136.4 63.8C136.8 63.8 137 64 137 64.3C137 64.5 136.8 64.9 136.5 65.2L134.7 67.1V67.9H138.3V67H136.1L137.3 65.8ZM149 65.8C149.5 65.2 149.9 64.7 149.9 64.2C149.9 63.4 149.2 62.9 148.3 62.9C147.6 62.9 147 63.2 146.4 63.6L146.8 64.4C147.2 64 147.7 63.8 148.1 63.8C148.5 63.8 148.7 64 148.7 64.3C148.7 64.5 148.5 64.9 148.2 65.2L146.4 67.1V67.9H150V67H147.8L149 65.8ZM154.1 67.9C155.5 67.9 156.2 67 156.2 65.4C156.2 63.8 155.4 62.9 154.1 62.9C152.7 62.9 152 63.8 152 65.4C151.9 67 152.7 67.9 154.1 67.9ZM154.1 63.7C154.8 63.7 155.1 64.2 155.1 65.3C155.1 66.5 154.8 67 154.1 67C153.4 67 153.1 66.5 153.1 65.3C153.1 64.2 153.4 63.7 154.1 63.7ZM121.1 36.3C120.9 36.6 120.7 36.8 120.4 37C120 37.4 119.6 37.7 119.1 38C118.1 38.7 116.9 39.3 115.2 41C112.2 43.9 112.2 43.4 112 43.1C111.8 42.8 111.9 42.5 113.2 41.1C114.5 39.7 115 38.7 114.8 38.5C114.6 38.3 114.6 38.3 111.9 40.7C109.2 43.1 108.3 43.1 108 42.8C107.7 42.5 108.9 41.1 110.2 40C111.5 38.9 112.7 37.5 112.5 37.3C112.3 37.2 111.9 37.5 109.8 39.5C107.7 41.5 106.7 41.9 106.2 41.4C105.8 40.9 106.8 40 108.6 38.4C110.5 36.8 111.8 35.7 111.6 35.5C111.4 35.3 108.3 37.7 107.2 38.6C106.2 39.4 105.6 38.8 105.4 38.3C105.3 37.9 106.9 36.3 108.9 34.7C109 34.6 109.2 34.5 109.3 34.4C111.4 32.7 113.6 31.3 113.7 31C113.8 30.7 112.8 30.4 111.5 30C110.3 29.6 110 28.2 110.2 27.8C110.4 27.4 111.2 28 111.9 28.4C112.3 28.6 113.1 28.7 113.8 28.7C114.4 28.7 114.9 28.7 115.1 28.6C115.6 28.5 117.8 29.7 119.6 29.5C120.2 29.4 122.3 28.2 124.8 26.5V26H95V57.5C93.4 59.4 91.4 61.6 91.4 61.6C91.4 61.6 92.6 60.9 95 59.3C97.6 57.2 99.7 55.4 100 54.8C100.3 54.2 100.4 53.5 100.4 52.8C100.5 51.6 100.4 50.5 100.5 50.2C100.7 49.8 101.5 47.8 101.3 47.1C101.1 46.3 100.9 45.4 101.3 45.3C101.8 45.2 103 45.9 103 47.3C103 48.6 102.9 49.7 103.2 49.7C103.5 49.7 105.5 48.1 107.8 46.5C110 45 112.4 43.8 112.7 44C113 44.3 113.5 45.1 112.4 45.8C111.3 46.5 108 48.8 108.1 49C108.3 49.2 109.6 48.3 111.7 47.1C113.8 45.8 115 45.1 115.3 45.7C115.6 46.3 114.9 47.2 112.3 48.5C109.7 49.9 109.3 50.2 109.4 50.4C109.5 50.6 111.2 49.9 112.7 49C114.2 48.1 115.8 47.4 116 47.8C116.2 48.2 115.9 49.1 112.8 50.8C109.7 52.6 109.7 52.6 109.8 52.9C109.9 53.2 111 52.9 112.7 52.1C114.4 51.3 114.8 51.3 115 51.6C115.2 51.9 115.6 52 112 54C110.4 54.9 109.4 55.6 108.6 56.2C107.6 57 106.9 57.6 105.6 58.1C103.2 59 102.6 59.3 100.8 61.3C99.9 62.3 97.5 65.1 94.9 68H124.8V34.1C126 33 127.6 31.8 127.6 31.8C127.6 31.8 127.4 31.8 125 33C123 33.9 122.5 34.4 121.1 36.3ZM59.9 93.8H67.1V91.2H62.4V86.6H65.8V84H62.4V79.4H67.1V76.8H59.9V93.8ZM54.6 84H51.5V76.8H49V93.7H51.5V86.5H54.6V93.7H57.1V76.9H54.6V84ZM155 76.8H151V93.7H155C156.1 93.7 157 93.3 157.8 92.5C158.6 91.7 159 90.8 159 89.6V80.7C159 79.6 158.6 78.6 157.8 77.8C157.1 77.2 156.1 76.8 155 76.8ZM156.5 89.8C156.5 90.2 156.4 90.5 156.1 90.8C155.8 91.1 155.5 91.2 155.1 91.2H153.6V79.4H155.1C155.5 79.4 155.8 79.5 156.1 79.8C156.4 80.1 156.5 80.4 156.5 80.8V89.8ZM72 76.9H69.5V93.8H76.4V91.3H72V76.9ZM145.7 88.2L142.3 76.8H139.5V93.7H142V82.9L145.5 93.7H148.2V76.8H145.7V88.2ZM169.6 88C169.5 87.8 169.4 87.5 169.2 87.2C168.9 86.6 168.4 86 167.8 85.3C167.6 85.1 167.2 84.8 166.6 84.3C166.1 83.9 165.7 83.5 165.5 83.2C164.8 82.4 164.5 81.6 164.5 80.8C164.5 80.3 164.6 79.9 164.8 79.6C165 79.2 165.4 79 165.9 79C166.3 79 166.7 79.1 166.9 79.4C167.2 79.8 167.4 80.3 167.5 81L169.9 80.6C169.8 79.9 169.7 79.2 169.3 78.6C169 78 168.6 77.6 168.1 77.3C167.5 76.9 166.7 76.7 165.8 76.7C164.9 76.7 164.1 76.9 163.4 77.4C162.4 78.2 161.9 79.4 161.9 80.9C161.9 81.8 162.1 82.5 162.5 83.3C162.8 83.9 163.4 84.7 164.3 85.5C165.3 86.5 166 87.2 166.5 87.6C167.1 88.3 167.5 89 167.5 89.7C167.5 90.2 167.4 90.6 167.2 90.8C166.9 91.3 166.4 91.6 165.9 91.6C165.5 91.6 165.2 91.5 164.9 91.1C164.5 90.7 164.2 89.9 164.1 89L161.7 89.2C161.8 90.1 161.9 90.9 162.3 91.6C162.6 92.3 163 92.8 163.6 93.3C164.3 93.8 165.1 94 166.1 94C166.6 94 167.1 93.9 167.5 93.8C168.3 93.6 168.8 93.2 169.2 92.6C169.8 91.8 170.1 90.8 170.1 89.6C170 89.1 169.9 88.6 169.6 88ZM119.3 84V76.8H116.8V93.7H119.3V86.5H122.4V93.7H125V76.9H122.5V84H119.3ZM130.5 76.9L127.6 93.8H130.2L130.8 89.9H133.4L134 93.8H136.7L134 76.9H130.5ZM131.3 87.4L132.2 80.7L133.1 87.4H131.3ZM89.2 93.8H91.7V76.9H89.2V93.8ZM110.1 76.7C109 76.7 108 77.1 107.3 77.9C106.5 78.7 106.1 79.6 106.1 80.8V90C106.1 91.1 106.5 92.1 107.3 92.8C108 93.6 109 94 110.1 94C111.2 94 112.1 93.6 112.9 92.8C113.7 92 114.1 91.1 114.1 89.9V84H110.1V86.6H111.5V89.9C111.5 90.3 111.4 90.6 111.1 90.9C110.8 91.2 110.5 91.3 110.1 91.3C109.7 91.3 109.4 91.2 109.1 90.9C108.8 90.6 108.7 90.3 108.7 89.9V80.6C108.7 80.2 108.8 79.8 109.1 79.6C109.4 79.3 109.7 79.2 110.1 79.2C110.5 79.2 110.8 79.3 111.1 79.6C111.4 79.9 111.5 80.2 111.5 80.6V82.6H114.1V80.7C114.1 79.6 113.7 78.6 112.9 77.8C112.1 77.1 111.2 76.7 110.1 76.7ZM82.6 76.9H78.6V93.8H81.1V87.4H82.6C83.7 87.4 84.6 87 85.4 86.2C86.2 85.4 86.6 84.5 86.6 83.3V80.8C86.6 79.6 86.3 78.7 85.6 77.9C84.9 77.3 83.9 76.9 82.6 76.9ZM84.2 83.4C84.2 83.8 84.1 84.2 83.8 84.4C83.5 84.7 83.2 84.8 82.8 84.8H81.3V79.4H82.8C83.2 79.4 83.6 79.5 83.9 79.8C84.2 80.1 84.3 80.4 84.3 80.9V83.4H84.2ZM100.8 88.2L97.4 76.8H94.6V93.7H97.1V82.9L100.6 93.7H103.3V76.8H100.8V88.2Z" fill="black"/>
</g>
</g>
<defs>
<clipPath id="clip0_1_215">
<rect width="122" height="68" fill="white" transform="translate(49 26)"/>
</clipPath>
</defs>
</svg>
