<svg width="220" height="120" viewBox="0 0 220 120" fill="none" xmlns="http://www.w3.org/2000/svg">
<g clip-path="url(#clip0_1_200)">
<g opacity="0.3">
<g clip-path="url(#clip1_1_200)">
<path d="M51.2 83.5001C50.9 83.3001 50.2 83.1001 49.3 82.7001C49 82.6001 48.8 82.5001 48.6 82.4001C48.4 82.3001 48.2 82.2001 48.1 82.1001C47.9 82.0001 47.8 81.9001 47.7 81.8001C47.5 81.7001 47.5 81.6001 47.4 81.5001C47.3 81.4001 47.3 81.3001 47.3 81.1001C47.3 80.7001 47.4 80.4001 47.7 80.2001C48 80.0001 48.3 79.9001 48.7 79.9001C49.5 79.9001 50.3 80.3001 51.3 81.1001L52.6 79.4001C51.4 78.4001 50.1 77.9001 48.7 77.9001C48 77.9001 47.4 78.1001 46.8 78.4001C46.2 78.7001 45.8 79.1001 45.4 79.6001C45.1 80.1001 44.9 80.7001 44.9 81.3001C44.9 81.6001 44.9 81.9001 45 82.2001C45.1 82.5001 45.2 82.7001 45.3 82.9001C45.4 83.1001 45.6 83.3001 45.8 83.5001C46 83.7001 46.2 83.8001 46.4 84.0001C46.6 84.1001 46.8 84.3001 47.1 84.4001C47.2 84.3001 47.5 84.5001 47.7 84.5001C47.9 84.6001 48.2 84.7001 48.5 84.8001C48.8 84.9001 49.1 85.0001 49.3 85.1001C49.5 85.2001 49.7 85.3001 49.9 85.4001C50.1 85.5001 50.2 85.6001 50.3 85.7001C50.4 85.8001 50.5 85.9001 50.5 86.1001C50.5 86.2001 50.5 86.3001 50.5 86.5001C50.5 86.7001 50.4 87.0001 50.3 87.1001C50.2 87.3001 50 87.4001 49.7 87.5001C49.4 87.6001 49.1 87.7001 48.8 87.7001C48.6 87.7001 48.3 87.7001 48.1 87.6001C47.9 87.5001 47.6 87.5001 47.4 87.3001C47.2 87.2001 46.9 87.0001 46.7 86.8001C46.5 86.6001 46.2 86.4001 46 86.1001L44.5 88.0001C45.1 88.6001 45.8 89.1001 46.5 89.4001C47.2 89.7001 48 89.9001 48.8 89.9001C49.2 89.9001 49.6 89.9001 50 89.8001C50.4 89.7001 50.8 89.6001 51.1 89.4001C51.5 89.2001 51.8 89.0001 52.1 88.7001C52.4 88.4001 52.6 88.1001 52.8 87.7001C53 87.3001 53 86.8001 53 86.3001C53 85.8001 52.9 85.4001 52.8 85.0001C52.4 84.4001 52 83.9001 51.2 83.5001ZM68.6 85.9001L66.5 78.0001H64L61.9 85.9001L59.6 78.0001H57.1L60.8 89.7001H62.9L65.2 81.4001L67.4 89.7001H69.5L73.2 78.0001H70.7L68.6 85.9001ZM80.6 84.9001H84.8V82.9001H80.6V80.1001H85.8V78.0001H78.3V89.7001H86.1V87.6001H80.6V84.9001ZM93.8 84.9001H98V82.9001H93.8V80.1001H99V78.0001H91.5V89.7001H99.3V87.6001H93.8V84.9001ZM103.9 80.0001H107.1V89.6001H109.5V80.0001H112.7V77.9001H103.9V80.0001ZM127.2 89.7001V78.0001H124.9V83.1001H120.1V78.0001H117.8V89.7001H120.1V85.1001H124.9V89.7001H127.2ZM142.8 79.5001C142.3 79.0001 141.6 78.6001 140.9 78.3001C140.2 78.0001 139.4 77.9001 138.5 77.9001C137.6 77.9001 136.8 78.1001 136.1 78.4001C135.4 78.7001 134.7 79.1001 134.2 79.6001C133.7 80.1001 133.3 80.8001 133 81.5001C132.7 82.2001 132.6 83.0001 132.6 83.9001C132.6 84.8001 132.7 85.6001 133 86.3001C133.3 87.0001 133.7 87.7001 134.2 88.2001C134.7 88.7001 135.3 89.1001 136.1 89.4001C136.8 89.7001 137.7 89.9001 138.5 89.9001C139.4 89.9001 140.1 89.8001 140.9 89.5001C141.6 89.2001 142.3 88.8001 142.8 88.3001C143.3 87.8001 143.7 87.2001 144 86.4001C144.3 85.7001 144.5 84.8001 144.5 84.0001C144.5 83.1001 144.3 82.3001 144 81.6001C143.8 80.6001 143.4 80.0001 142.8 79.5001ZM141.9 85.3001C141.7 85.8001 141.5 86.2001 141.2 86.5001C140.9 86.8001 140.5 87.1001 140.1 87.3001C139.7 87.5001 139.2 87.6001 138.7 87.6001C138 87.6001 137.4 87.4001 136.8 87.1001C136.3 86.8001 135.8 86.3001 135.5 85.7001C135.2 85.1001 135.1 84.5001 135.1 83.8001C135.1 83.1001 135.2 82.5001 135.5 81.9001C135.8 81.3001 136.2 80.9001 136.8 80.5001C137.3 80.2001 138 80.0001 138.7 80.0001C139.4 80.0001 140 80.2001 140.5 80.5001C141 80.8001 141.5 81.3001 141.8 81.9001C142.1 82.5001 142.3 83.1001 142.3 83.9001C142.1 84.4001 142 84.9001 141.9 85.3001ZM155.9 84.6001L152.3 77.9001H150V89.6001H152.3V82.3001L155.2 87.4001H156.7L159.6 82.3001V89.6001H161.9V78.0001H159.5L155.9 84.6001ZM170 87.6001V84.9001H174.2V82.9001H170V80.1001H175.2V78.0001H167.7V89.7001H175.5V87.6001H170ZM70.6 96.9001C70.5 96.8001 70.4 96.8001 70.3 96.7001C70.2 96.6001 70 96.6001 69.9 96.5001C69.8 96.5001 69.8 96.4001 69.7 96.4001C69.6 96.4001 69.6 96.3001 69.5 96.3001L69.4 96.2001V96.1001C69.4 96.0001 69.4 95.9001 69.5 95.9001C69.6 95.9001 69.7 95.8001 69.9 95.8001C70 95.8001 70.2 95.8001 70.3 95.9001C70.4 95.9001 70.5 96.0001 70.6 96.0001L70.8 95.4001C70.7 95.3001 70.6 95.3001 70.4 95.3001C70.2 95.3001 70.1 95.2001 69.9 95.2001C69.7 95.2001 69.6 95.2001 69.4 95.3001C69.3 95.3001 69.1 95.4001 69 95.5001C68.9 95.6001 68.8 95.7001 68.8 95.8001C68.7 95.9001 68.7 96.0001 68.7 96.2001C68.7 96.3001 68.7 96.5001 68.8 96.6001C68.9 96.7001 68.9 96.8001 69 96.9001C69.1 97.0001 69.2 97.0001 69.3 97.1001C69.4 97.1001 69.5 97.2001 69.6 97.2001C69.8 97.3001 70 97.4001 70.1 97.4001C70.2 97.5001 70.2 97.6001 70.2 97.7001V97.8001C70.2 97.8001 70.2 97.9001 70.1 97.9001C70.1 97.9001 70 98.0001 69.9 98.0001C69.8 98.0001 69.8 98.0001 69.7 98.0001C69.5 98.0001 69.3 98.0001 69.2 97.9001C69.1 97.9001 68.9 97.8001 68.9 97.8001L68.7 98.4001C68.7 98.4001 68.8 98.4001 68.9 98.5001C69 98.5001 69 98.6001 69.1 98.6001C69.2 98.6001 69.3 98.6001 69.4 98.7001C69.5 98.7001 69.6 98.7001 69.8 98.7001C70.2 98.7001 70.5 98.6001 70.7 98.5001C70.9 98.3001 71 98.1001 71 97.8001C71 97.7001 71 97.5001 70.9 97.4001C70.8 97.1001 70.7 97.0001 70.6 96.9001ZM75.3 95.3001H74.6V98.4001H76.7V97.8001H75.3V95.3001ZM82.9 95.7001C82.8 95.6001 82.6 95.5001 82.4 95.4001C82.2 95.3001 82 95.3001 81.8 95.3001C81.6 95.3001 81.4 95.3001 81.2 95.4001C81 95.5001 80.8 95.6001 80.7 95.7001C80.6 95.8001 80.4 96.0001 80.4 96.2001C80.3 96.4001 80.3 96.6001 80.3 96.9001C80.3 97.2001 80.3 97.4001 80.4 97.6001C80.5 97.8001 80.6 98.0001 80.7 98.1001C80.8 98.2001 81 98.3001 81.2 98.4001C81.4 98.5001 81.6 98.5001 81.8 98.5001C82 98.5001 82.2 98.5001 82.4 98.4001C82.6 98.3001 82.8 98.2001 82.9 98.1001C83 98.0001 83.1 97.8001 83.2 97.6001C83.3 97.4001 83.3 97.2001 83.3 96.9001C83.3 96.6001 83.3 96.4001 83.2 96.2001C83.2 96.0001 83.1 95.8001 82.9 95.7001ZM82.6 97.3001C82.6 97.4001 82.5 97.5001 82.4 97.6001C82.3 97.7001 82.2 97.8001 82.1 97.8001C82 97.8001 81.9 97.9001 81.8 97.9001C81.7 97.9001 81.6 97.9001 81.4 97.8001C81.3 97.8001 81.2 97.7001 81.1 97.6001C81 97.5001 81 97.4001 80.9 97.3001C80.9 97.2001 80.8 97.0001 80.8 96.9001C80.8 96.8001 80.8 96.6001 80.9 96.5001C80.9 96.4001 81 96.3001 81.1 96.2001C81.2 96.1001 81.3 96.0001 81.4 96.0001C81.5 96.0001 81.6 95.9001 81.8 95.9001C81.9 95.9001 82 95.9001 82.1 96.0001C82.2 96.0001 82.3 96.1001 82.4 96.2001C82.5 96.3001 82.5 96.4001 82.6 96.5001C82.6 96.6001 82.7 96.8001 82.7 96.9001C82.7 97.0001 82.7 97.2001 82.6 97.3001ZM88.9 97.9001C88.8 97.9001 88.8 97.9001 88.7 97.9001C88.6 97.9001 88.4 97.9001 88.3 97.8001C88.2 97.8001 88.1 97.7001 88 97.6001C87.9 97.5001 87.9 97.4001 87.8 97.3001C87.8 97.2001 87.7 97.0001 87.7 96.9001C87.7 96.6001 87.8 96.3001 87.9 96.2001C88 96.0001 88.3 95.9001 88.6 95.9001C88.7 95.9001 88.9 95.9001 89 96.0001C89.1 96.0001 89.2 96.1001 89.3 96.1001L89.5 95.5001C89.5 95.5001 89.4 95.5001 89.4 95.4001C89.3 95.4001 89.3 95.3001 89.2 95.3001C89.1 95.3001 89 95.3001 88.9 95.2001C88.8 95.2001 88.6 95.2001 88.5 95.2001C88.3 95.2001 88.1 95.2001 87.9 95.3001C87.7 95.4001 87.5 95.5001 87.4 95.6001C87.3 95.7001 87.1 95.9001 87.1 96.1001C87 96.3001 87 96.5001 87 96.8001C87 97.1001 87 97.3001 87.1 97.5001C87.2 97.7001 87.3 97.9001 87.4 98.0001C87.5 98.1001 87.7 98.2001 87.9 98.3001C88.1 98.4001 88.3 98.4001 88.5 98.4001C88.8 98.4001 89 98.4001 89.2 98.3001C89.4 98.3001 89.5 98.2001 89.6 98.2001V96.7001H88.9V97.9001ZM95.8 96.7001C95.7 96.4001 95.6 96.2001 95.5 96.0001C95.4 95.8001 95.3 95.6001 95.2 95.3001H94.5C94.4 95.5001 94.3 95.7001 94.2 96.0001C94.1 96.2001 94 96.5001 93.9 96.7001C93.8 97.0001 93.7 97.2001 93.6 97.5001C93.5 97.8001 93.4 98.1001 93.3 98.4001H94C94 98.3001 94.1 98.2001 94.1 98.1001C94.1 98.0001 94.2 97.9001 94.2 97.8001H95.5C95.5 97.9001 95.6 98.0001 95.6 98.1001C95.6 98.2001 95.7 98.3001 95.7 98.4001H96.5C96.4 98.1001 96.3 97.8001 96.2 97.5001C96 97.2001 95.9 97.0001 95.8 96.7001ZM94.4 97.2001C94.4 97.1001 94.5 96.9001 94.5 96.8001C94.5 96.7001 94.6 96.6001 94.6 96.5001C94.6 96.4001 94.7 96.3001 94.7 96.2001C94.7 96.1001 94.8 96.1001 94.8 96.0001C94.8 96.0001 94.8 96.1001 94.9 96.2001C94.9 96.3001 95 96.4001 95 96.5001C95 96.6001 95.1 96.7001 95.1 96.8001C95.1 96.9001 95.2 97.1001 95.2 97.2001H94.4ZM102.1 97.2001C102 97.0001 101.9 96.9001 101.8 96.7001C101.7 96.5001 101.6 96.4001 101.4 96.2001C101.3 96.0001 101.2 95.9001 101 95.7001C100.9 95.6001 100.8 95.4001 100.7 95.3001H100.1V98.4001H100.8V96.4001C101.1 96.7001 101.3 97.0001 101.5 97.4001C101.7 97.7001 102 98.1001 102.2 98.5001H102.8V95.4001H102.1V97.2001ZM109.6 97.9001C109.5 97.9001 109.5 97.9001 109.4 97.9001C109.3 97.9001 109.1 97.9001 109 97.8001C108.9 97.8001 108.8 97.7001 108.7 97.6001C108.6 97.5001 108.5 97.4001 108.5 97.3001C108.5 97.2001 108.4 97.0001 108.4 96.9001C108.4 96.6001 108.5 96.3001 108.6 96.2001C108.7 96.0001 109 95.9001 109.3 95.9001C109.4 95.9001 109.6 95.9001 109.7 96.0001C109.8 96.0001 109.9 96.1001 110 96.1001L110.2 95.5001C110.2 95.5001 110.1 95.5001 110.1 95.4001C110 95.4001 110 95.3001 109.9 95.3001C109.8 95.3001 109.7 95.3001 109.6 95.2001C109.5 95.2001 109.3 95.2001 109.2 95.2001C109 95.2001 108.8 95.2001 108.6 95.3001C108.4 95.4001 108.2 95.5001 108.1 95.6001C108 95.7001 107.8 95.9001 107.8 96.1001C107.7 96.3001 107.7 96.5001 107.7 96.8001C107.7 97.1001 107.7 97.3001 107.8 97.5001C107.9 97.7001 108 97.9001 108.1 98.0001C108.2 98.1001 108.4 98.2001 108.6 98.3001C108.8 98.4001 109 98.4001 109.2 98.4001C109.5 98.4001 109.7 98.4001 109.9 98.3001C110.1 98.3001 110.2 98.2001 110.3 98.2001V96.7001H109.6V97.9001ZM116.8 95.7001C116.7 95.6001 116.5 95.5001 116.3 95.4001C116.1 95.3001 115.9 95.3001 115.7 95.3001C115.5 95.3001 115.3 95.3001 115.1 95.4001C114.9 95.5001 114.7 95.6001 114.6 95.7001C114.5 95.8001 114.3 96.0001 114.3 96.2001C114.2 96.4001 114.2 96.6001 114.2 96.9001C114.2 97.2001 114.2 97.4001 114.3 97.6001C114.4 97.8001 114.5 98.0001 114.6 98.1001C114.7 98.2001 114.9 98.3001 115.1 98.4001C115.3 98.5001 115.5 98.5001 115.7 98.5001C115.9 98.5001 116.1 98.5001 116.3 98.4001C116.5 98.3001 116.7 98.2001 116.8 98.1001C116.9 98.0001 117 97.8001 117.1 97.6001C117.2 97.4001 117.2 97.2001 117.2 96.9001C117.2 96.6001 117.2 96.4001 117.1 96.2001C117 96.0001 116.9 95.8001 116.8 95.7001ZM116.4 97.3001C116.4 97.4001 116.3 97.5001 116.2 97.6001C116.1 97.7001 116 97.8001 115.9 97.8001C115.8 97.8001 115.7 97.9001 115.6 97.9001C115.5 97.9001 115.4 97.9001 115.2 97.8001C115.1 97.8001 115 97.7001 114.9 97.6001C114.8 97.5001 114.8 97.4001 114.7 97.3001C114.7 97.2001 114.6 97.0001 114.6 96.9001C114.6 96.8001 114.6 96.6001 114.7 96.5001C114.7 96.4001 114.8 96.3001 114.9 96.2001C115 96.1001 115.1 96.0001 115.2 96.0001C115.3 96.0001 115.4 95.9001 115.6 95.9001C115.7 95.9001 115.8 95.9001 115.9 96.0001C116 96.0001 116.1 96.1001 116.2 96.2001C116.3 96.3001 116.3 96.4001 116.4 96.5001C116.4 96.6001 116.5 96.8001 116.5 96.9001C116.5 97.0001 116.5 97.2001 116.4 97.3001ZM121.8 97.1001H123V96.5001H121.8V95.9001H123.2V95.3001H121.1V98.4001H123.3V97.8001H121.8V97.1001ZM128.9 96.9001C128.8 96.8001 128.7 96.8001 128.6 96.7001C128.5 96.6001 128.3 96.6001 128.2 96.5001C128.1 96.5001 128.1 96.4001 128 96.4001C127.9 96.4001 127.9 96.3001 127.8 96.3001L127.7 96.2001V96.1001C127.7 96.0001 127.7 95.9001 127.8 95.9001C127.9 95.9001 128 95.8001 128.2 95.8001C128.4 95.8001 128.5 95.8001 128.6 95.9001C128.7 95.9001 128.8 96.0001 128.9 96.0001L129.1 95.4001C129 95.3001 128.9 95.3001 128.7 95.3001C128.5 95.3001 128.4 95.2001 128.2 95.2001C128 95.2001 127.9 95.2001 127.7 95.3001C127.6 95.3001 127.4 95.4001 127.3 95.5001C127.2 95.6001 127.1 95.7001 127.1 95.8001C127 95.9001 127 96.0001 127 96.2001C127 96.3001 127 96.5001 127.1 96.6001C127.2 96.7001 127.2 96.8001 127.3 96.9001C127.4 97.0001 127.5 97.0001 127.6 97.1001C127.7 97.1001 127.8 97.2001 127.9 97.2001C128.1 97.3001 128.3 97.4001 128.4 97.4001C128.5 97.5001 128.5 97.6001 128.5 97.7001V97.8001C128.5 97.8001 128.5 97.9001 128.4 97.9001C128.4 97.9001 128.3 98.0001 128.2 98.0001C128.1 98.0001 128.1 98.0001 128 98.0001C127.8 98.0001 127.6 98.0001 127.5 97.9001C127.4 97.9001 127.2 97.8001 127.2 97.8001L127 98.4001C127 98.4001 127.1 98.4001 127.2 98.5001C127.3 98.5001 127.3 98.6001 127.4 98.6001C127.5 98.6001 127.6 98.6001 127.7 98.7001C127.8 98.7001 127.9 98.7001 128.1 98.7001C128.5 98.7001 128.8 98.6001 129 98.5001C129.2 98.3001 129.3 98.1001 129.3 97.8001C129.3 97.7001 129.3 97.5001 129.2 97.4001C129.1 97.3001 128.9 97.0001 128.9 96.9001ZM135.8 96.5001H134.6V95.3001H133.9V98.4001H134.6V97.1001H135.8V98.4001H136.5V95.3001H135.8V96.5001ZM141.2 97.1001H142.5V96.5001H141.3V95.9001H142.7V95.3001H140.5V98.4001H142.7V97.8001H141.2V97.1001ZM148.7 97.7001C148.6 97.6001 148.6 97.5001 148.5 97.4001C148.4 97.3001 148.4 97.2001 148.3 97.1001C148.5 97.0001 148.6 96.9001 148.7 96.8001C148.8 96.7001 148.9 96.5001 148.9 96.3001C148.9 95.9001 148.8 95.7001 148.5 95.5001C148.3 95.3001 147.9 95.2001 147.4 95.2001C147.3 95.2001 147.1 95.2001 147 95.2001C146.9 95.2001 146.7 95.2001 146.5 95.3001V98.4001H147.2V97.3001H147.5C147.6 97.4001 147.6 97.5001 147.7 97.5001C147.8 97.6001 147.8 97.7001 147.9 97.8001C148 97.9001 148 98.0001 148.1 98.1001C148.2 98.2001 148.2 98.3001 148.3 98.4001H149.1C149 98.3001 149 98.2001 148.9 98.1001C148.8 98.0001 148.7 97.9001 148.7 97.7001ZM148 96.6001C147.9 96.7001 147.7 96.7001 147.4 96.7001H147.2V95.9001H147.4C147.6 95.9001 147.8 95.9001 147.9 96.0001C148 96.1001 148.1 96.2001 148.1 96.3001C148.1 96.5001 148.1 96.6001 148 96.6001ZM153.4 97.1001H154.6V96.5001H153.4V95.9001H154.8V95.3001H152.7V98.4001H154.9V97.8001H153.4V97.1001ZM153.1 46.7001C153.3 46.2001 153.6 44.8001 152 43.4001L128 22.6001C126.3 21.1001 123.6 21.1001 121.9 22.6001L111.8 31.4001L101.6 22.6001C99.9 21.1001 97.2 21.1001 95.5 22.6001L71.5 43.5001C69.9 44.9001 70.2 46.2001 70.4 46.8001C70.6 47.3001 71.3 48.5001 73.4 48.5001H77.4C77.6 48.5001 77.7 48.6001 77.7 48.8001V66.1001C77.7 68.5001 79.6 70.4001 82 70.4001H107C107.8 70.4001 108.5 69.9001 108.8 69.2001C109.1 68.5001 108.9 67.6001 108.4 67.0001L99.3 57.9001C96.2 54.9001 96.2 49.9001 99.3 46.8001C102.4 43.8001 107.3 43.8001 110.4 46.8001C111.2 47.6001 112.4 47.6001 113.2 46.8001C116.3 43.8001 121.2 43.8001 124.3 46.8001C127.4 49.8001 127.4 54.8001 124.3 57.9001L115.2 67.0001C115.1 67.1001 115 67.2001 115 67.3001C114.9 67.4001 114.9 67.5001 114.9 67.5001C114.8 67.8001 114.7 68.1001 114.7 68.4001V68.5001C114.7 68.7001 114.7 68.9001 114.8 69.1001C114.9 69.4001 115.1 69.6001 115.3 69.9001C115.7 70.3001 116.2 70.5001 116.7 70.5001H141.7C144.1 70.5001 146 68.6001 146 66.2001V48.8001C146 48.6001 146.1 48.5001 146.3 48.5001H150.3C152.3 48.5001 152.9 47.3001 153.1 46.7001ZM146.1 44.5001C143.7 44.5001 141.8 46.4001 141.8 48.8001V66.1001C141.8 66.3001 141.7 66.4001 141.5 66.4001H121.4L127.1 60.7001C131.7 56.1001 131.7 48.6001 127.1 44.0001C122.9 39.8001 116.4 39.4001 111.8 42.8001C107.2 39.4001 100.7 39.8001 96.5 44.0001C91.9 48.6001 91.9 56.1001 96.5 60.7001L102.2 66.4001H82C81.8 66.4001 81.7 66.3001 81.7 66.1001V48.8001C81.7 46.4001 79.8 44.5001 77.4 44.5001H76.4L98.2 25.6001C98.4 25.4001 98.8 25.4001 99 25.6001L110.5 35.6001C111.3 36.3001 112.4 36.3001 113.1 35.6001L124.5 25.6001C124.7 25.4001 125.1 25.4001 125.3 25.6001L147.1 44.5001H146.1Z" fill="black"/>
</g>
</g>
</g>
<defs>
<clipPath id="clip0_1_200">
<rect width="190" height="79" fill="white" transform="translate(15 20.5)"/>
</clipPath>
<clipPath id="clip1_1_200">
<rect width="131" height="79" fill="white" transform="translate(44.5 20.5)"/>
</clipPath>
</defs>
</svg>
