<svg width="220" height="120" viewBox="0 0 220 120" fill="none" xmlns="http://www.w3.org/2000/svg">
<g opacity="0.3">
<g clip-path="url(#clip0_1_205)">
<path d="M83.8 64.1C86.6 67.5 90.9 69.6 95.6 69.6C95.6 69.6 95.6 69.6 95.7 69.6C100.5 69.6 104.8 67.4 107.6 64.1C107.9 63.8 108.1 63.5 108.3 63.1C110.1 60.6 111.1 57.5 111.1 54.2C111.1 50.9 110 47.8 108.3 45.3C108.1 45 107.8 44.6 107.6 44.3C106 42.4 104.1 41 101.8 40C102.1 40.6 102.4 41.2 102.8 41.9C104.2 42.7 105.5 43.8 106.6 45.1C106 45.5 105.4 45.8 104.7 46.1C104.8 46.5 105 46.9 105.1 47.3C105.9 46.9 106.7 46.5 107.3 46.1C108.9 48.4 109.9 51.1 109.9 54.1H105.4C105.3 54.5 105.1 55 104.9 55.4H109.8C109.6 58 108.7 60.4 107.3 62.4C106.3 61.8 105.2 61.2 103.9 60.7C104.3 59.2 104.6 57.6 104.7 55.9C104.3 56.7 103.8 57.4 103.2 58.1C103.1 58.9 102.9 59.6 102.7 60.4C102.1 60.2 101.6 60.1 101 60C100.4 60.4 99.7 60.7 99 60.9C100.2 61.1 101.3 61.3 102.3 61.6C101 65.4 98.8 68.1 96.2 68.4V61.4C96 61.4 95.8 61.4 95.6 61.4C95.4 61.4 95.2 61.4 95 61.4V68.4C92.4 68 90.1 65.4 88.9 61.6C90 61.3 91.1 61 92.3 60.9C91.6 60.7 91 60.3 90.3 60C89.7 60.1 89.1 60.3 88.5 60.5C88.3 59.7 88.1 59 88 58.1C87.4 57.4 86.9 56.7 86.5 55.9C86.6 57.7 86.9 59.4 87.3 60.9C86.1 61.4 85 61.9 84 62.6C82.6 60.6 81.7 58.2 81.4 55.6H86.3C86.1 55.2 86 54.8 85.8 54.3H81.5C81.5 51.3 82.5 48.6 84.1 46.3C84.8 46.7 85.5 47.2 86.3 47.5C86.4 47.1 86.6 46.7 86.7 46.3C86 46 85.4 45.6 84.8 45.3C85.9 44 87.2 43 88.6 42.1C88.9 41.4 89.3 40.8 89.6 40.2C87.3 41.2 85.4 42.7 83.8 44.5C83.5 44.8 83.3 45.1 83.1 45.5C81.3 48 80.3 51.1 80.3 54.4C80.3 57.7 81.4 60.8 83.1 63.3C83.3 63.5 83.5 63.8 83.8 64.1ZM103.6 61.9C104.7 62.3 105.7 62.8 106.6 63.4C104.9 65.4 102.7 66.9 100.1 67.7C101.6 66.3 102.8 64.3 103.6 61.9ZM87.7 61.9C88.5 64.3 89.7 66.3 91.1 67.7C88.6 66.9 86.4 65.4 84.8 63.4C85.7 62.8 86.6 62.3 87.7 61.9ZM95.7 60.2C100.7 60.2 104.7 56.2 104.7 51.2C104.7 46.8 99.6 38.8 96.7 32.6C96.5 32.3 96.1 32 95.7 32C95.3 32 94.8 32.3 94.7 32.7C91.8 38.9 86.7 46.9 86.7 51.3C86.6 56.2 90.7 60.2 95.7 60.2ZM88.9 51.5C89.2 54.6 91 57.2 93.5 58.2C90.4 57.5 88.1 54.8 88.1 51.6C88.1 50.1 88.6 48.7 89.5 47.5C89 48.7 88.8 50.1 88.9 51.5ZM80.4 43.3H74.1L71.3 58.5L68.1 48L69.2 43.3H62.9L60.1 58.5L56.3 43.3H50L56.4 65.8H63.7L65.5 58.5L67.6 65.8H74.9L80.4 43.3ZM137.5 65.8H146.7V60.4H140.3C139.4 60.4 138.4 60.4 138.4 58.8V43.3H132.4V61C132.4 64.5 134.7 65.8 137.5 65.8ZM119.2 57.4L121.1 57.8L124 65.8H130.9L127 57.3C128.6 56.7 130.3 55.9 130.3 50.5C130.3 44.9 127.4 43.3 123.4 43.3H113.2V65.8H119.2V57.4ZM119.2 48.4H122.5C123.9 48.4 124.2 49.2 124.2 50.5C124.2 52.1 124.1 52.9 122.5 52.9H119.2V48.4ZM167 54.6C167 48.2 165.4 43.3 159.3 43.3H148.7V65.8H159.3C164.5 65.8 167 62.5 167 54.6ZM154.7 60.8V48.4H158.7C160.2 48.4 161 49.1 161 54.7C161 59 160.4 60.8 158.7 60.8H154.7ZM45 81.4C46.2 81.1 46.5 79.9 46.5 78.7C46.5 77.3 45.8 75.5 43.3 75.5H38.5V87.9H43.3C45.9 87.9 46.6 86.2 46.6 84.5C46.6 82.5 45.7 81.6 45 81.4ZM39.8 76.7H43.3C44.2 76.7 45.3 77 45.3 78.7C45.3 80.1 44.6 80.8 43.3 80.8H39.8V76.7ZM43.3 86.6H39.8V82H43.3C44.7 82 45.3 83.1 45.3 84.4C45.3 86.4 44.1 86.6 43.3 86.6ZM84.9 75.5H80.3V87.9H84.9C88.2 87.9 89.3 84.6 89.3 81.8C89.4 79.2 88.8 75.5 84.9 75.5ZM84.9 86.5H81.5V76.7H84.9C86.9 76.7 88.1 78.1 88.1 81.7C88.1 84.3 87.2 86.5 84.9 86.5ZM62.2 75.4C59.3 75.4 57.4 76 57.4 81.8C57.4 87.4 59.2 88 62.2 88C65.3 88 67 87.3 67 81.8C67 75.9 65.2 75.4 62.2 75.4ZM62.2 86.7C59.5 86.7 58.6 86.1 58.6 81.8C58.6 76.7 59.9 76.7 62.2 76.7C64.5 76.7 65.7 76.8 65.7 81.8C65.8 86 64.9 86.7 62.2 86.7ZM73.4 75.4C70.5 75.4 68.6 76 68.6 81.8C68.6 87.4 70.4 88 73.4 88C76.5 88 78.2 87.3 78.2 81.8C78.2 75.9 76.3 75.4 73.4 75.4ZM73.4 86.7C70.7 86.7 69.8 86.1 69.8 81.8C69.8 76.7 71.1 76.7 73.4 76.7C75.7 76.7 76.9 76.8 76.9 81.8C76.9 86 76 86.7 73.4 86.7ZM49.9 85.7V75.5H48.6V85.7C48.6 87.6 49.8 87.8 50.9 87.8H56.1V86.5H50.9C50.5 86.6 49.9 86.6 49.9 85.7ZM123 81.8L119.4 75.4H116V87.8H119.3V81.6L122.9 87.8H126.2V75.5H122.9V81.8H123ZM132.7 75.4C129.8 75.4 127.5 76 127.5 81.8C127.5 87.5 129.6 88 132.7 88C135.8 88 137.9 87.3 137.9 81.8C137.9 76 135.7 75.4 132.7 75.4ZM132.7 85C131 85 130.8 84.4 130.8 81.7C130.8 78.7 131.2 78.3 132.7 78.3C134.3 78.3 134.6 78.8 134.6 81.7C134.6 84.4 134.2 85 132.7 85ZM148.6 79.5C148.6 76.4 147 75.5 144.8 75.5H139.2V87.9H142.5V83.3L143.5 83.5L145.1 87.9H148.9L146.7 83.2C147.6 82.9 148.6 82.4 148.6 79.5ZM144.3 80.8H142.5V78.3H144.3C145.1 78.3 145.2 78.7 145.2 79.5C145.2 80.4 145.2 80.8 144.3 80.8ZM99.2 75.5H93.3V87.9H99.2C102.1 87.9 103.5 86.1 103.5 81.7C103.4 78.2 102.6 75.5 99.2 75.5ZM98.8 85.1H96.6V78.2H98.8C99.6 78.2 100.1 78.6 100.1 81.7C100.1 84.1 99.8 85.1 98.8 85.1ZM109.7 75.4C106.8 75.4 104.5 76 104.5 81.8C104.5 87.5 106.6 88 109.7 88C112.8 88 114.9 87.3 114.9 81.8C114.9 76 112.7 75.4 109.7 75.4ZM109.7 85C108 85 107.8 84.4 107.8 81.7C107.8 78.7 108.2 78.3 109.7 78.3C111.3 78.3 111.6 78.8 111.6 81.7C111.6 84.4 111.2 85 109.7 85ZM180.1 75.5L176.5 82L173.3 75.5H171.9L175.9 83.5V87.9H177.2V83.5L181.5 75.5H180.1ZM167.1 75.5L162.5 87.9H164.1L165.2 84.4H170.2L171.3 87.9H172.8L168.4 75.5H167.1ZM165.6 83.2L167.7 77.4L169.7 83.2H165.6ZM157.4 75.5H152.7V87.9H157.4C160.7 87.9 161.9 84.5 161.9 81.7C161.9 79.2 161.3 75.5 157.4 75.5ZM157.4 86.6H154V76.7H157.4C159.4 76.7 160.6 78.1 160.6 81.7C160.6 84.3 159.7 86.6 157.4 86.6Z" fill="black"/>
</g>
</g>
<defs>
<clipPath id="clip0_1_205">
<rect width="143" height="56" fill="white" transform="translate(38.5 32)"/>
</clipPath>
</defs>
</svg>
