<svg width="220" height="120" viewBox="0 0 220 120" fill="none" xmlns="http://www.w3.org/2000/svg">
<g clip-path="url(#clip0_1_220)">
<g clip-path="url(#clip1_1_220)">
<g opacity="0.3">
<g clip-path="url(#clip2_1_220)">
<path fill-rule="evenodd" clip-rule="evenodd" d="M137.2 67.9C137.6 67.4 137.5 66.8 137.1 66.4L133.5 63.3C133 62.9 132.4 63 132 63.4C131.6 63.9 131.7 64.5 132.1 64.9L135.7 68C136.2 68.4 136.8 68.4 137.2 67.9ZM87.1 59.5C87.6 59.2 87.8 58.5 87.5 58C87.2 57.5 86.5 57.3 86 57.6L72 65.7C71.5 66 71.3 66.7 71.6 67.2C71.9 67.7 72.6 67.9 73.1 67.6L87.1 59.5ZM79 51.8C78.9 51.2 78.3 50.8 77.8 50.9L67.5 52.4C66.9 52.5 66.5 53.1 66.6 53.7C66.7 54.3 67.3 54.7 67.8 54.6L78 53.1C78.7 52.9 79.1 52.4 79 51.8ZM138.5 79.1C139 78.7 139 78 138.6 77.6L125.7 62.1C125.3 61.6 124.6 61.6 124.2 62C123.7 62.4 123.7 63.1 124.1 63.5L137 78.9C137.3 79.4 138 79.5 138.5 79.1ZM148.4 67.2C148.7 66.7 148.5 66 148 65.7L132 56.4C131.5 56.1 130.8 56.3 130.5 56.8C130.2 57.3 130.4 58 130.9 58.3L146.9 67.6C147.4 67.9 148.1 67.8 148.4 67.2ZM67.2 48.8C71.6 48.6 75.5 48.6 78.4 49C80.7 49.2 82.2 49.6 82.7 50.2C86.4 55 90.5 56.4 94.6 57.9C97.8 59 101.1 60.2 104.2 63.1C105.2 64.1 106.3 62.5 106.7 61.8C107.1 61.2 107.3 60.4 107.4 59.5C107.8 59.7 108.3 59.8 108.8 59.7C108.9 60.3 109.2 60.8 109.7 61.3C110 61.6 110.3 61.9 110.7 62.1C112.7 63.5 114.6 63.4 116.7 62.8C118.5 62.2 120.3 61.2 121.7 60.2C126 57.4 128 55.3 129.4 53.8C130.9 52.2 131.7 51.3 134.9 51C137.5 50.7 140.2 50.4 143 50.1C146.6 49.7 150.2 49.3 152.8 49.1C153.4 49 153.8 48.5 153.8 47.9C153.7 47.3 153.2 46.9 152.6 46.9C149.8 47.2 146.3 47.5 142.7 47.9C139.8 48.2 136.9 48.5 134.6 48.8C133.6 48.9 132.7 49.1 132 49.2C132.3 47.9 132.4 46.5 132.2 45.4C132.1 44.8 131.5 44.4 131 44.5C130.4 44.6 130 45.2 130.1 45.7C130.2 46.5 130.2 47.6 129.9 48.7C129.4 50.3 128.8 51 127.7 52.1C126.4 53.5 124.5 55.5 120.4 58.2C119.6 58.7 118.7 59.3 117.7 59.8C114.9 61.2 116.8 59.6 117.5 58.9C118.1 58.3 118.6 57.8 119.1 57.3C122.1 54.6 123 52.3 122.9 50.8C122.8 49.4 121.8 48.2 120.4 48C120.9 47 121.4 45.7 121.1 44.5C122.3 44.4 123.7 44.2 125 43.6C125.5 43.4 125.8 42.7 125.6 42.2C125.4 41.7 124.7 41.4 124.2 41.6C122.4 42.4 120.8 42.5 119.4 42.3C116.5 41.9 115 40.6 113.7 38.3C112.9 36.9 112 35.4 110.2 34.3C112.3 34 115.1 34.4 117 35.3C117.5 35.5 118.2 35.3 118.4 34.8C118.6 34.3 118.4 33.6 117.9 33.4C116.7 32.9 113.6 31.9 110.6 32.2C108.6 32.4 106.6 33.1 105.1 34.8C103.8 36.2 102.1 36.5 100.8 36.2C99.6 35.9 99 35.5 100 34.4C100.7 33.5 101.7 32.4 102.7 31.4C103.9 30.2 105.2 29.2 106.2 29.1C108.5 28.9 112.7 28.4 114.7 29.4C118.3 31.2 121.7 33.7 125.4 35.2C127 35.8 129.2 36 133.2 35.4C137 34.8 142.5 33.6 150.8 31.3C151.4 31.1 151.7 30.6 151.6 30C151.4 29.4 150.9 29.1 150.3 29.2C142.1 31.4 136.6 32.6 132.9 33.2C129.3 33.7 127.5 33.6 126.2 33.1C122.6 31.6 119.2 29.2 115.7 27.4C113.2 26.1 108.9 26.7 106.1 26.9C104.5 27 102.8 28.3 101.2 29.8C99.8 31.2 100.1 31.7 96.6 32C94 32.2 90.6 32.5 86.6 32.6C80.5 32.7 74.8 31.6 68.9 30.7C68.3 30.6 67.8 31 67.7 31.6C67.6 32.2 68 32.7 68.6 32.8C74.7 33.7 80.4 34.8 86.7 34.7C91.2 34.6 95 34.3 97.6 34C96.8 35.4 97.7 36.7 98.8 37.5C101.2 39 104.3 38.5 106.3 36.7C107.5 35.6 107.9 35.5 109.1 36.2C110.4 37 111.2 38.1 112.1 39.6C110.3 40.1 108.3 41.5 106.4 43C106.4 42.1 106.1 41.2 105.5 40.5C105 40 104.4 39.7 103.6 39.6C102.1 39.5 99.9 40.4 97.1 43C93.8 46.1 93.4 47.9 95.3 50C96.2 51 97.7 51.9 99 52.7C100.7 53.7 102.7 54.6 104 56.1C105.2 57.4 105.6 59 104.7 60.6C101.5 57.9 98.3 56.8 95.2 55.7C91.4 54.4 87.6 53.1 84.3 48.7C83.5 47.6 81.4 47 78.5 46.7C75.5 46.4 71.5 46.4 67 46.5C66.4 46.5 65.9 47 66 47.6C66.1 48.3 66.6 48.8 67.2 48.8ZM121 51.1C121.2 52.1 120.3 53.7 117.9 55.9C116.6 57 115.4 58.3 114.3 59.5C113.3 60.6 112.9 60.9 112.1 60.2C110.6 59.2 111.4 58.5 112 57.9L116.3 53.7C117 53 120.5 48.7 121 51.1ZM117.2 44.7C119 43.8 119.6 45.4 118.7 47.1C117.8 48.9 116 50.9 114.6 52.3L111.8 55C111.1 55.7 109.4 57.6 108.4 57.4C107.9 57.3 107.3 56.8 106.7 56C105.7 54.7 106.8 53.9 107.9 52.8C109.4 51.4 111.3 49.7 112.9 48.1C114.2 46.9 115.6 45.5 117.2 44.7ZM98.9 49.8C98.2 49.9 97.2 48.9 96.9 48.6C96 47.7 96.5 46.6 98.6 44.7C99.4 43.9 100.1 43.4 100.8 42.9C104 40.7 104.9 42.4 104 44.4C103.5 45.5 102.6 46.3 101.8 47.2C101.4 47.6 99.8 49.8 98.9 49.8ZM103.4 52.8C102.9 52.5 102.4 52.2 101.9 51.9C100.6 51.2 101.4 50.7 102 50C103 48.9 104 47.9 105.1 46.9C107.2 45.1 109.9 42.7 111.8 41.9C114.2 40.8 114.5 42.9 113.1 44.7C112.3 45.7 111.3 46.7 110.3 47.6C109 48.8 107.6 50.1 106.5 51.2C105.6 52.1 104.7 53.5 103.4 52.8ZM142.8 55.8L138.3 54.2C137.7 54 137.1 54.3 136.9 54.8C136.7 55.4 137 56 137.5 56.2L142 57.8C142.6 58 143.2 57.7 143.4 57.2C143.6 56.6 143.3 56 142.8 55.8ZM92.2 75.9C92.7 76.2 93.4 76 93.7 75.5L96.1 71.4C96.4 70.9 96.2 70.2 95.7 69.9C95.2 69.6 94.5 69.8 94.2 70.3L91.8 74.4C91.5 74.9 91.7 75.6 92.2 75.9ZM103.8 80.1C104.4 80.2 104.9 79.8 105 79.2L105.8 74.5C105.9 73.9 105.5 73.3 104.9 73.2C104.3 73.1 103.8 73.5 103.7 74.1L102.9 78.8C102.9 79.5 103.2 80 103.8 80.1ZM94.8 86.8C95.4 87 96 86.7 96.2 86.2L103.2 66.8C103.4 66.2 103.1 65.6 102.6 65.4C102 65.2 101.4 65.5 101.2 66L94.2 85.4C94 86 94.3 86.6 94.8 86.8ZM110 65C109.4 65 108.9 65.5 108.9 66.1V88.5C108.9 89.1 109.4 89.6 110 89.6C110.6 89.6 111.1 89.1 111.1 88.5V66.1C111.1 65.5 110.6 65 110 65ZM81.5 79.1C82 79.5 82.6 79.4 83 79L96.4 63C96.8 62.5 96.7 61.9 96.3 61.5C95.8 61.1 95.2 61.2 94.8 61.6L81.4 77.6C81 78 81.1 78.7 81.5 79.1ZM78 58L82.5 56.4C83.1 56.2 83.3 55.6 83.1 55C82.9 54.4 82.3 54.1 81.7 54.4L77.2 56C76.6 56.2 76.4 56.8 76.6 57.4C76.8 57.9 77.4 58.2 78 58ZM84.3 68.1L87.9 65C88.4 64.6 88.4 63.9 88 63.5C87.6 63 86.9 63 86.5 63.4L82.9 66.5C82.4 66.9 82.4 67.6 82.8 68C83.2 68.4 83.8 68.4 84.3 68.1ZM117.3 25C117.9 25.2 118.5 24.9 118.7 24.4L125.9 4.6C126.1 4 125.8 3.4 125.3 3.2C124.7 3 124.1 3.3 123.9 3.8L116.7 23.6C116.4 24.2 116.7 24.8 117.3 25ZM124.3 20.1C124.8 20.4 125.5 20.2 125.8 19.7L128.2 15.6C128.5 15.1 128.3 14.4 127.8 14.1C127.3 13.8 126.6 14 126.3 14.5L123.9 18.6C123.6 19.1 123.8 19.8 124.3 20.1ZM105 16.7C105.6 16.6 106 16 105.9 15.4L105.1 10.7C105 10.1 104.4 9.7 103.9 9.8C103.3 9.9 102.9 10.5 103 11.1L103.8 15.8C103.9 16.4 104.4 16.8 105 16.7ZM117 78.9L116.2 74.2C116.1 73.6 115.5 73.2 115 73.3C114.4 73.4 114 74 114.1 74.6L114.9 79.3C115 79.9 115.6 80.3 116.1 80.2C116.8 80 117.2 79.5 117 78.9ZM115 16.7C115.6 16.8 116.1 16.4 116.2 15.8L117 11.1C117.1 10.5 116.7 9.9 116.1 9.8C115.5 9.7 115 10.1 114.9 10.7L114.1 15.4C114 16 114.4 16.6 115 16.7ZM123.7 28.6C124.2 29 124.8 28.9 125.2 28.5L138.6 12.4C139 11.9 138.9 11.3 138.5 10.9C138 10.5 137.4 10.6 137 11L123.5 27.1C123.2 27.6 123.2 28.3 123.7 28.6ZM135.9 30C136.2 30.5 136.9 30.7 137.4 30.4L148 24.2C148.5 23.9 148.7 23.2 148.4 22.7C148.1 22.2 147.4 22 146.9 22.3L136.3 28.5C135.8 28.8 135.6 29.5 135.9 30ZM137.2 22.1C136.8 21.6 136.1 21.6 135.7 22L132.1 25.1C131.6 25.5 131.6 26.2 132 26.6C132.4 27.1 133.1 27.1 133.5 26.7L137.1 23.6C137.5 23.2 137.6 22.5 137.2 22.1ZM152.3 54.2C152.4 53.6 152 53 151.5 52.9L146.2 51.8C145.6 51.7 145 52.1 144.9 52.6C144.8 53.2 145.2 53.8 145.7 53.9L151 55C151.6 55.1 152.2 54.8 152.3 54.2ZM110 23.8C110.6 23.8 111.1 23.3 111.1 22.7V1.6C111.1 1 110.6 0.5 110 0.5C109.4 0.5 108.9 1 108.9 1.6V22.7C108.9 23.3 109.4 23.8 110 23.8ZM125.8 85.4L118.8 66.1C118.6 65.5 118 65.2 117.4 65.5C116.8 65.7 116.6 66.3 116.8 66.9L123.8 86.2C124 86.8 124.6 87.1 125.2 86.8C125.7 86.6 126 86 125.8 85.4ZM82.8 22.1C82.4 22.6 82.5 23.2 82.9 23.6L86.5 26.7C87 27.1 87.6 27 88 26.6C88.4 26.1 88.3 25.5 87.9 25.1L84.3 22C83.8 21.5 83.2 21.6 82.8 22.1ZM72 24.2L82.8 30.5C83.3 30.8 84 30.6 84.3 30.1C84.6 29.6 84.4 28.9 83.9 28.6L73.1 22.3C72.6 22 71.9 22.2 71.6 22.7C71.3 23.3 71.5 23.9 72 24.2ZM127.8 75.9C128.3 75.6 128.5 74.9 128.2 74.4L125.8 70.3C125.5 69.8 124.8 69.6 124.3 69.9C123.8 70.2 123.6 70.9 123.9 71.4L126.3 75.5C126.6 76 127.3 76.2 127.8 75.9ZM95.1 28.8C95.5 29.3 96.2 29.3 96.6 28.9C97.1 28.5 97.1 27.8 96.7 27.4L83 11C82.6 10.5 81.9 10.5 81.5 10.9C81 11.3 81 12 81.4 12.4L95.1 28.8ZM94.2 19.7C94.5 20.2 95.2 20.4 95.7 20.1C96.2 19.8 96.4 19.1 96.1 18.6L93.7 14.5C93.4 14 92.7 13.8 92.2 14.1C91.7 14.4 91.5 15.1 91.8 15.6L94.2 19.7ZM101.4 24.5C101.6 25.1 102.2 25.4 102.8 25.1C103.4 24.9 103.6 24.3 103.4 23.7L96.2 3.8C96 3.2 95.4 2.9 94.8 3.2C94.2 3.4 94 4 94.2 4.6L101.4 24.5ZM56.8 108.2C56.4 108.4 55.9 108.5 55.5 108.5C54.9 108.5 54.4 108.4 53.9 108.1C53.4 107.8 53 107.4 52.8 106.9C52.5 106.4 52.4 105.9 52.4 105.3C52.4 104.7 52.5 104.2 52.8 103.7C53.1 103.2 53.5 102.8 53.9 102.6C54.4 102.3 54.9 102.2 55.5 102.2C56 102.2 56.4 102.3 56.9 102.5C57.3 102.7 57.7 103 58.1 103.4L59.1 102.1C58.6 101.6 58.1 101.3 57.5 101C56.9 100.7 56.2 100.6 55.5 100.6C54.6 100.6 53.8 100.8 53 101.2C52.2 101.6 51.7 102.2 51.2 102.9C50.8 103.6 50.5 104.4 50.5 105.3C50.5 106.2 50.7 107 51.1 107.7C51.5 108.4 52.1 109 52.9 109.4C53.6 109.8 54.5 110 55.4 110C56.1 110 56.7 109.9 57.4 109.6C58 109.3 58.6 108.9 59.1 108.4L58 107.2C57.6 107.7 57.2 108 56.8 108.2ZM131.3 110V100.6H129.5V110H131.3ZM81.1 118.2H81.7V114.7H81.1V118.2ZM128.9 114.7C128.6 114.7 128.3 114.8 128 114.9C127.7 115.1 127.5 115.3 127.4 115.5C127.3 115.8 127.2 116.1 127.2 116.4C127.2 116.7 127.3 117.1 127.4 117.3C127.5 117.6 127.8 117.8 128 117.9C128.3 118 128.6 118.1 128.9 118.1C129.2 118.1 129.5 118 129.7 117.9C129.9 117.8 130.1 117.7 130.3 117.5L130 117.1C129.9 117.2 129.7 117.3 129.5 117.4C129.3 117.5 129.1 117.5 128.9 117.5C128.6 117.5 128.3 117.4 128.1 117.2C127.9 117 127.8 116.8 127.7 116.5H130.5C130.5 116.5 130.5 116.4 130.5 116.3C130.5 115.7 130.4 115.3 130.1 115C129.9 114.8 129.5 114.7 128.9 114.7ZM127.8 116.2C127.8 115.9 128 115.6 128.2 115.5C128.4 115.3 128.7 115.2 129 115.2C129.3 115.2 129.6 115.3 129.8 115.5C130 115.7 130.1 115.9 130.1 116.3H127.8V116.2ZM125.7 118.2H126.3V114.7H125.7V118.2ZM126 113.3C125.9 113.3 125.8 113.3 125.7 113.4C125.6 113.5 125.6 113.6 125.6 113.7C125.6 113.8 125.6 113.9 125.7 114C125.8 114.1 125.9 114.1 126 114.1C126.1 114.1 126.2 114.1 126.3 114C126.4 113.9 126.4 113.8 126.4 113.7C126.4 113.6 126.4 113.5 126.3 113.4C126.2 113.3 126.2 113.3 126 113.3ZM133.1 116.3C132.9 116.2 132.7 116.2 132.5 116.1C132.2 116 132.1 116 131.9 115.9C131.8 115.8 131.7 115.7 131.7 115.6C131.7 115.5 131.8 115.4 131.9 115.3C132 115.2 132.2 115.2 132.3 115.2C132.5 115.2 132.6 115.2 132.8 115.3C133 115.4 133.1 115.4 133.3 115.5L133.5 115C133.4 114.9 133.2 114.8 133 114.8C132.8 114.7 132.6 114.7 132.4 114.7C132 114.7 131.7 114.8 131.5 114.9C131.3 115.1 131.1 115.3 131.1 115.6C131.1 115.8 131.2 116 131.3 116.1C131.4 116.2 131.5 116.3 131.7 116.4C131.8 116.5 132 116.5 132.3 116.6C132.6 116.7 132.8 116.8 132.9 116.8C133 116.9 133.1 117 133.1 117.2C133.1 117.4 133 117.5 132.9 117.5C132.8 117.6 132.6 117.6 132.4 117.6C132.2 117.6 132 117.6 131.8 117.5C131.6 117.4 131.4 117.3 131.3 117.2L131.1 117.7C131.3 117.9 131.5 118 131.7 118.1C131.9 118.2 132.2 118.2 132.5 118.2C132.9 118.2 133.2 118.1 133.4 117.9C133.6 117.7 133.8 117.5 133.8 117.1C133.8 116.9 133.7 116.7 133.6 116.6C133.4 116.5 133.3 116.4 133.1 116.3ZM121.6 113.3C121.5 113.3 121.4 113.3 121.3 113.4C121.2 113.5 121.2 113.6 121.2 113.7C121.2 113.8 121.2 113.9 121.3 114C121.4 114.1 121.5 114.1 121.6 114.1C121.7 114.1 121.8 114.1 121.9 114C122 113.9 122 113.8 122 113.7C122 113.6 122 113.5 121.9 113.4C121.8 113.3 121.7 113.3 121.6 113.3ZM137.6 110H139.4V102.2H142.3V100.6H134.7V102.2H137.6V110ZM124.3 117.7C124.2 117.7 124.1 117.7 124 117.6C123.9 117.5 123.9 117.4 123.9 117.2V115.4H125V114.9H123.9V114H123.3V114.9H122.8V115.4H123.3V117.3C123.3 117.6 123.4 117.9 123.6 118.1C123.8 118.3 124 118.3 124.3 118.3C124.6 118.3 124.8 118.2 125.1 118L124.9 117.5C124.6 117.6 124.5 117.7 124.3 117.7ZM123.4 107.1L118.6 100.6H116.9V110H118.6V103.5L123.4 110H125.1V100.6H123.4V107.1ZM121.3 118.2H121.9V114.7H121.3V118.2ZM153.7 106.1H158.2V104.5H153.7V102.2H158.8V100.6H152V110H159V108.4H153.8V106.1H153.7ZM71 107.8C71.4 107.1 71.7 106.2 71.7 105.4C71.7 104.5 71.5 103.7 71 103C70.6 102.3 70 101.7 69.2 101.3C68.4 100.9 67.6 100.7 66.7 100.7C65.8 100.7 64.9 100.9 64.2 101.3C63.5 101.7 62.8 102.3 62.4 103C62 103.7 61.7 104.5 61.7 105.4C61.7 106.3 61.9 107.1 62.4 107.8C62.8 108.5 63.4 109.1 64.2 109.5C65 109.9 65.8 110.1 66.7 110.1C67.6 110.1 68.5 109.9 69.2 109.5C70 109.1 70.6 108.5 71 107.8ZM68.3 108.1C67.8 108.4 67.3 108.5 66.7 108.5C66.1 108.5 65.6 108.4 65.1 108.1C64.6 107.8 64.2 107.4 63.9 106.9C63.6 106.4 63.5 105.9 63.5 105.3C63.5 104.7 63.6 104.2 63.9 103.7C64.2 103.2 64.6 102.8 65.1 102.5C65.6 102.2 66.1 102.1 66.7 102.1C67.3 102.1 67.8 102.2 68.3 102.5C68.8 102.8 69.2 103.2 69.4 103.7C69.7 104.2 69.8 104.7 69.8 105.3C69.8 105.9 69.7 106.4 69.4 106.9C69.1 107.4 68.8 107.8 68.3 108.1ZM169.1 105.9C168.8 105.5 168.5 105.3 168.1 105.1C167.7 104.9 167.2 104.7 166.5 104.5C166 104.4 165.7 104.2 165.4 104.1C165.1 104 164.9 103.8 164.7 103.7C164.5 103.5 164.4 103.3 164.4 103.1C164.4 102.8 164.5 102.6 164.8 102.4C165 102.2 165.4 102.2 165.8 102.2C166.2 102.2 166.6 102.3 167.1 102.4C167.6 102.6 168.1 102.8 168.6 103.1L169.3 101.5C168.8 101.2 168.3 101 167.7 100.8C167.1 100.6 166.5 100.5 165.9 100.5C165.2 100.5 164.6 100.6 164.1 100.8C163.6 101 163.2 101.3 162.9 101.7C162.6 102.1 162.5 102.6 162.5 103.1C162.5 103.7 162.6 104.2 162.9 104.5C163.2 104.9 163.5 105.1 163.9 105.3C164.3 105.5 164.8 105.7 165.4 105.8C165.9 105.9 166.2 106.1 166.5 106.2C166.8 106.3 167 106.4 167.2 106.6C167.4 106.8 167.5 107 167.5 107.3C167.5 107.6 167.4 107.9 167.1 108.1C166.8 108.3 166.4 108.4 165.9 108.4C165.4 108.4 164.8 108.3 164.3 108C163.7 107.7 163.2 107.4 162.7 107L162 108.5C162.5 109 163.1 109.3 163.8 109.6C164.5 109.9 165.2 110 165.9 110C166.6 110 167.2 109.9 167.7 109.7C168.2 109.5 168.7 109.2 169 108.7C169.3 108.3 169.5 107.8 169.5 107.2C169.5 106.7 169.4 106.2 169.1 105.9ZM146.2 115.3C146.1 115.1 145.9 114.9 145.7 114.8C145.5 114.7 145.2 114.6 145 114.6C144.7 114.6 144.4 114.7 144.2 114.8C144 114.9 143.8 115.1 143.6 115.4C143.5 115.7 143.4 115.9 143.4 116.3C143.4 116.6 143.5 116.9 143.6 117.2C143.7 117.5 143.9 117.7 144.2 117.8C144.4 117.9 144.7 118 145 118C145.3 118 145.5 117.9 145.7 117.8C145.9 117.7 146.1 117.5 146.2 117.3V117.8C146.2 118.1 146.1 118.4 145.9 118.6C145.7 118.8 145.4 118.9 145 118.9C144.8 118.9 144.6 118.9 144.4 118.8C144.2 118.7 144 118.6 143.9 118.5L143.6 119C144 119.3 144.5 119.5 145 119.5C145.4 119.5 145.7 119.4 145.9 119.3C146.2 119.2 146.4 119 146.5 118.7C146.6 118.4 146.7 118.2 146.7 117.8V114.7H146.1V115.3H146.2ZM146.1 117C146 117.2 145.9 117.3 145.7 117.4C145.5 117.5 145.3 117.6 145.1 117.6C144.8 117.6 144.5 117.5 144.3 117.3C144.1 117.1 144 116.8 144 116.5C144 116.3 144 116.1 144.1 115.9C144.2 115.7 144.3 115.6 144.5 115.5C144.7 115.4 144.9 115.3 145.1 115.3C145.3 115.3 145.5 115.4 145.7 115.5C145.9 115.6 146 115.7 146.1 115.9C146.2 116.1 146.2 116.3 146.2 116.5C146.2 116.6 146.2 116.8 146.1 117ZM142 114.9C141.7 114.8 141.4 114.7 141.1 114.7C140.7 114.7 140.4 114.8 140.2 114.9C139.9 115.1 139.7 115.3 139.6 115.5C139.4 115.8 139.4 116.1 139.4 116.4C139.4 116.7 139.5 117.1 139.6 117.3C139.8 117.6 140 117.8 140.2 117.9C140.5 118 140.8 118.1 141.1 118.1C141.4 118.1 141.8 118 142 117.9C142.3 117.7 142.5 117.5 142.6 117.3C142.8 117 142.8 116.7 142.8 116.4C142.8 116.1 142.7 115.8 142.6 115.5C142.5 115.3 142.3 115 142 114.9ZM142.1 117.1C142 117.3 141.9 117.4 141.7 117.5C141.5 117.6 141.3 117.7 141.1 117.7C140.9 117.7 140.7 117.6 140.5 117.5C140.3 117.4 140.2 117.2 140.1 117.1C140 116.9 140 116.7 140 116.5C140 116.3 140 116 140.1 115.9C140.2 115.7 140.3 115.6 140.5 115.5C140.7 115.4 140.9 115.3 141.1 115.3C141.3 115.3 141.5 115.4 141.7 115.5C141.9 115.6 142 115.8 142.1 115.9C142.2 116.1 142.2 116.3 142.2 116.5C142.3 116.7 142.2 116.9 142.1 117.1ZM136.3 113.6V118.2H139V117.6H137V113.6H136.3ZM145.7 110H147.5V100.6H145.7V110ZM150.3 114.9C150 114.8 149.7 114.7 149.4 114.7C149 114.7 148.7 114.8 148.5 114.9C148.2 115.1 148 115.3 147.9 115.5C147.7 115.8 147.7 116.1 147.7 116.4C147.7 116.7 147.8 117.1 147.9 117.3C148.1 117.6 148.3 117.8 148.5 117.9C148.8 118 149.1 118.1 149.4 118.1C149.7 118.1 150.1 118 150.3 117.9C150.6 117.7 150.8 117.5 150.9 117.3C151.1 117 151.1 116.7 151.1 116.4C151.1 116.1 151 115.8 150.9 115.5C150.8 115.3 150.6 115 150.3 114.9ZM150.4 117.1C150.3 117.3 150.2 117.4 150 117.5C149.8 117.6 149.6 117.7 149.4 117.7C149.2 117.7 149 117.6 148.8 117.5C148.6 117.4 148.5 117.2 148.4 117.1C148.3 116.9 148.3 116.7 148.3 116.5C148.3 116.3 148.3 116 148.4 115.9C148.5 115.7 148.6 115.6 148.8 115.5C149 115.4 149.2 115.3 149.4 115.3C149.6 115.3 149.8 115.4 150 115.5C150.2 115.6 150.3 115.8 150.4 115.9C150.5 116.1 150.5 116.3 150.5 116.5C150.6 116.7 150.5 116.9 150.4 117.1ZM86.8 118.2H87.4V113.3H86.8V118.2ZM85.3 115C85.1 114.8 84.7 114.7 84.3 114.7C84 114.7 83.8 114.7 83.5 114.8C83.3 114.9 83.1 115 82.8 115.2L83.1 115.6C83.5 115.3 83.8 115.2 84.2 115.2C84.5 115.2 84.7 115.3 84.9 115.4C85.1 115.5 85.1 115.7 85.1 116V116.2H84C83.6 116.2 83.3 116.3 83 116.5C82.8 116.7 82.7 116.9 82.7 117.2C82.7 117.4 82.7 117.6 82.8 117.7C82.9 117.9 83 118 83.2 118.1C83.4 118.2 83.6 118.2 83.8 118.2C84.4 118.2 84.8 118 85 117.7V118.2H85.6V115.9C85.6 115.5 85.5 115.2 85.3 115ZM85 117C85 117.2 84.8 117.4 84.6 117.6C84.4 117.7 84.2 117.8 83.9 117.8C83.7 117.8 83.5 117.7 83.4 117.6C83.3 117.5 83.2 117.4 83.2 117.2C83.2 117 83.3 116.9 83.4 116.8C83.5 116.7 83.7 116.7 84 116.7H85V117ZM79.4 117.6C79.2 117.7 79 117.7 78.8 117.7C78.6 117.7 78.4 117.6 78.2 117.5C78 117.4 77.9 117.3 77.8 117.1C77.7 116.9 77.7 116.7 77.7 116.5C77.7 116.3 77.8 116 77.9 115.9C78 115.7 78.1 115.6 78.3 115.5C78.5 115.4 78.7 115.3 78.9 115.3C79.3 115.3 79.6 115.4 79.9 115.7L80.2 115.3C80 115.1 79.8 115 79.6 114.9C79.4 114.8 79.1 114.8 78.8 114.8C78.5 114.8 78.2 114.9 77.9 115C77.6 115.2 77.4 115.4 77.3 115.6C77.2 115.9 77.1 116.2 77.1 116.5C77.1 116.8 77.2 117.1 77.3 117.4C77.4 117.7 77.7 117.9 77.9 118C78.2 118.1 78.5 118.2 78.8 118.2C79.1 118.2 79.4 118.1 79.6 118C79.8 117.9 80 117.7 80.2 117.5L79.9 117.1C79.7 117.4 79.6 117.5 79.4 117.6ZM118.9 114.7C118.2 114.7 117.8 115 117.6 115.5V114.8H117V118.3H117.6V116.4C117.6 116.1 117.7 115.8 117.9 115.6C118.1 115.4 118.3 115.3 118.7 115.3C119 115.3 119.2 115.4 119.4 115.5C119.6 115.7 119.6 115.9 119.6 116.2V118.2H120.2V116C120.2 115.6 120.1 115.2 119.9 115C119.6 114.8 119.3 114.7 118.9 114.7ZM71.6 115.8C71.4 115.7 71.2 115.6 70.8 115.5C70.5 115.4 70.4 115.4 70.2 115.3C70.1 115.2 69.9 115.2 69.8 115.1C69.7 115 69.7 114.9 69.7 114.7C69.7 114.5 69.8 114.4 69.9 114.3C70.1 114.2 70.3 114.1 70.5 114.1C70.7 114.1 70.9 114.1 71.1 114.2C71.3 114.3 71.6 114.4 71.8 114.5L72.1 113.9C71.9 113.8 71.7 113.7 71.4 113.6C71.1 113.5 70.9 113.5 70.6 113.5C70.3 113.5 70 113.6 69.7 113.7C69.5 113.8 69.3 113.9 69.1 114.1C69 114.3 68.9 114.5 68.9 114.8C68.9 115.1 69 115.3 69.1 115.5C69.2 115.7 69.4 115.8 69.6 115.9C69.8 116 70 116.1 70.4 116.2C70.7 116.3 70.8 116.3 71 116.4C71.1 116.5 71.3 116.5 71.4 116.7C71.5 116.8 71.5 116.9 71.5 117.1C71.5 117.3 71.4 117.5 71.2 117.6C71 117.7 70.8 117.8 70.5 117.8C70.2 117.8 70 117.7 69.7 117.6C69.4 117.5 69.2 117.3 69 117.1L68.7 117.6C68.9 117.8 69.2 118 69.5 118.1C69.8 118.2 70.2 118.3 70.5 118.3C70.8 118.3 71.1 118.2 71.4 118.1C71.7 118 71.9 117.8 72 117.6C72.1 117.4 72.2 117.2 72.2 116.9C72.2 116.6 72.1 116.4 72 116.2C72 116.1 71.8 115.9 71.6 115.8ZM75.7 114.9C75.4 114.8 75.1 114.7 74.8 114.7C74.4 114.7 74.1 114.8 73.9 114.9C73.6 115.1 73.4 115.3 73.3 115.5C73.1 115.8 73.1 116.1 73.1 116.4C73.1 116.7 73.2 117.1 73.3 117.3C73.5 117.6 73.7 117.8 73.9 117.9C74.2 118 74.5 118.1 74.8 118.1C75.1 118.1 75.5 118 75.7 117.9C76 117.7 76.2 117.5 76.3 117.3C76.5 117 76.5 116.7 76.5 116.4C76.5 116.1 76.4 115.8 76.3 115.5C76.1 115.3 75.9 115 75.7 114.9ZM75.8 117.1C75.7 117.3 75.6 117.4 75.4 117.5C75.2 117.6 75 117.7 74.8 117.7C74.6 117.7 74.4 117.6 74.2 117.5C74 117.4 73.9 117.2 73.8 117.1C73.7 116.9 73.7 116.7 73.7 116.5C73.7 116.3 73.7 116 73.8 115.9C73.9 115.7 74 115.6 74.2 115.5C74.4 115.4 74.6 115.3 74.8 115.3C75 115.3 75.2 115.4 75.4 115.5C75.6 115.6 75.7 115.8 75.8 115.9C75.9 116.1 75.9 116.3 75.9 116.5C75.9 116.7 75.9 116.9 75.8 117.1ZM81 109L83.9 103.2V109.9H85.5V100.5H83.5L80.4 106.5L77.3 100.5H75.3V109.9H76.9V103.2L79.8 109H81ZM81.4 113.3C81.3 113.3 81.2 113.3 81.1 113.4C81 113.5 81 113.6 81 113.7C81 113.8 81 113.9 81.1 114C81.2 114.1 81.3 114.1 81.4 114.1C81.5 114.1 81.6 114.1 81.7 114C81.8 113.9 81.8 113.8 81.8 113.7C81.8 113.6 81.8 113.5 81.7 113.4C81.6 113.3 81.5 113.3 81.4 113.3ZM110.8 100.6V106.1C110.8 106.8 110.6 107.4 110.2 107.8C109.8 108.2 109.2 108.4 108.5 108.4C107.8 108.4 107.2 108.2 106.8 107.8C106.4 107.4 106.2 106.8 106.2 106.1V100.6H104.5V106.1C104.5 106.9 104.7 107.6 105 108.2C105.3 108.8 105.8 109.3 106.4 109.6C107 109.9 107.7 110.1 108.6 110.1C109.4 110.1 110.1 109.9 110.8 109.6C111.4 109.3 111.9 108.8 112.2 108.2C112.5 107.6 112.7 106.9 112.7 106.1V100.6H110.8ZM115.2 116.4C115.2 116.8 115.1 117 114.9 117.3C114.7 117.5 114.5 117.6 114.1 117.6C113.8 117.6 113.6 117.5 113.4 117.4C113.2 117.2 113.2 117 113.2 116.7V114.7H112.6V116.9C112.6 117.3 112.7 117.7 112.9 117.9C113.1 118.1 113.4 118.3 113.8 118.3C114.4 118.3 114.9 118 115.1 117.5V118.2H115.7V114.7H115.1V116.4H115.2ZM110.3 114.7C109.6 114.7 109.2 115 108.9 115.6C108.8 115.3 108.7 115.1 108.5 115C108.3 114.8 108 114.8 107.7 114.8C107.1 114.8 106.6 115.1 106.4 115.6V114.9H105.8V118.4H106.4V116.5C106.4 116.1 106.5 115.9 106.7 115.6C106.9 115.4 107.2 115.3 107.5 115.2C107.8 115.2 108 115.3 108.2 115.5C108.4 115.7 108.4 115.9 108.4 116.2V118.2H109V116.5C109 116.1 109.1 115.9 109.3 115.6C109.5 115.4 109.7 115.3 110.1 115.2C110.4 115.2 110.6 115.3 110.8 115.5C111 115.7 111 115.9 111 116.2V118.2H111.6V116C111.6 115.6 111.5 115.3 111.3 115C111 114.8 110.7 114.7 110.3 114.7ZM93.1 117.5C92.9 117.6 92.6 117.6 92.4 117.6C92.1 117.6 91.8 117.5 91.5 117.4C91.2 117.3 91 117 90.9 116.8C90.7 116.5 90.7 116.2 90.7 115.9C90.7 115.6 90.8 115.3 90.9 115C91.1 114.7 91.3 114.5 91.5 114.4C91.8 114.2 92.1 114.2 92.4 114.2C92.6 114.2 92.9 114.3 93.1 114.4C93.3 114.5 93.5 114.6 93.7 114.8L94.1 114.3C93.9 114.1 93.6 113.9 93.3 113.8C93 113.7 92.7 113.6 92.4 113.6C92 113.6 91.5 113.7 91.2 113.9C90.8 114.1 90.5 114.4 90.3 114.8C90.1 115.2 90 115.6 90 116C90 116.4 90.1 116.8 90.3 117.2C90.5 117.6 90.8 117.8 91.2 118.1C91.6 118.3 92 118.4 92.4 118.4C92.7 118.4 93 118.3 93.3 118.2C93.6 118.1 93.9 117.9 94.1 117.7L93.7 117.3C93.6 117.3 93.3 117.4 93.1 117.5ZM97.2 114.9C96.9 114.8 96.6 114.7 96.3 114.7C95.9 114.7 95.6 114.8 95.4 114.9C95.1 115.1 94.9 115.3 94.8 115.5C94.6 115.8 94.6 116.1 94.6 116.4C94.6 116.7 94.7 117.1 94.8 117.3C95 117.6 95.2 117.8 95.4 117.9C95.7 118 96 118.1 96.3 118.1C96.6 118.1 97 118 97.2 117.9C97.5 117.7 97.7 117.5 97.8 117.3C98 117 98 116.7 98 116.4C98 116.1 97.9 115.8 97.8 115.5C97.7 115.3 97.5 115 97.2 114.9ZM97.3 117.1C97.2 117.3 97.1 117.4 96.9 117.5C96.7 117.6 96.5 117.7 96.3 117.7C96.1 117.7 95.9 117.6 95.7 117.5C95.5 117.4 95.4 117.2 95.3 117.1C95.2 116.9 95.2 116.7 95.2 116.5C95.2 116.3 95.2 116 95.3 115.9C95.4 115.7 95.5 115.6 95.7 115.5C95.9 115.4 96.1 115.3 96.3 115.3C96.5 115.3 96.7 115.4 96.9 115.5C97.1 115.6 97.2 115.8 97.3 115.9C97.4 116.1 97.4 116.3 97.4 116.5C97.5 116.7 97.4 116.9 97.3 117.1ZM100.2 110V100.6H98.2L95.1 106.6L92 100.6H90V110H91.6V103.3L94.5 109.1H95.6L98.5 103.3V110H100.2ZM103.4 114.7C102.7 114.7 102.3 115 102 115.6C101.9 115.3 101.8 115.1 101.6 115C101.4 114.8 101.1 114.8 100.8 114.8C100.2 114.8 99.7 115.1 99.5 115.6V114.9H98.9V118.4H99.5V116.5C99.5 116.1 99.6 115.9 99.8 115.6C100 115.4 100.3 115.3 100.6 115.2C100.9 115.2 101.1 115.3 101.3 115.5C101.5 115.7 101.5 115.9 101.5 116.2V118.2H102.1V116.5C102.1 116.1 102.2 115.9 102.4 115.6C102.6 115.4 102.8 115.3 103.2 115.2C103.5 115.2 103.7 115.3 103.9 115.5C104.1 115.7 104.1 115.9 104.1 116.2V118.2H104.7V116C104.7 115.6 104.6 115.3 104.4 115C104.1 114.8 103.8 114.7 103.4 114.7Z" fill="black"/>
</g>
</g>
</g>
</g>
<defs>
<clipPath id="clip0_1_220">
<rect width="220" height="119" fill="white" transform="translate(0 0.5)"/>
</clipPath>
<clipPath id="clip1_1_220">
<rect width="190" height="119" fill="white" transform="translate(15 0.5)"/>
</clipPath>
<clipPath id="clip2_1_220">
<rect width="119" height="119" fill="white" transform="translate(50.5 0.5)"/>
</clipPath>
</defs>
</svg>
