<svg width="220" height="120" viewBox="0 0 220 120" fill="none" xmlns="http://www.w3.org/2000/svg">
<g clip-path="url(#clip0_1_195)">
<g opacity="0.3">
<g clip-path="url(#clip1_1_195)">
<path d="M151.8 45.7002C150.7 44.6002 148.9 44.7002 147.8 45.8002L143.5 50.3002L138.4 55.7002C137.3 56.8002 135.6 56.9002 134.4 55.8002C133.3 54.7002 133.2 52.9002 134.3 51.8002L139.4 46.4002L148.4 36.9002L151 34.1002C152.1 33.0002 152 31.2002 150.9 30.1002C149.8 29.0002 148 29.1002 146.9 30.2002L144.3 33.0002L135.3 42.5002L130.2 47.9002C129.1 49.0002 127.4 49.1002 126.2 48.0002C125.6 47.3002 124.6 45.6002 126.1 44.0002L137.8 31.6002L143.7 25.6002C144.8 24.5002 144.7 22.7002 143.6 21.6002C142.5 20.5002 140.7 20.6002 139.6 21.7002L133.7 27.7002L122 40.1002C120.9 41.2002 119.2 41.3002 118 40.2002C117.3 39.4002 116.2 38.0002 117.9 36.2002L123 30.8002L130.1 23.2002C131.8 21.4002 131.1 19.9002 130.1 19.0002C128.7 17.8002 127.1 18.2002 126 19.3002L105.3 41.8002C103.4 43.7002 102 45.0002 101.4 45.4002C98.4 47.4002 95.5 43.6002 90.1 41.3002L89.8 41.2002C89.5 41.1002 89.3 41.0002 89 40.9002C82.1 38.6002 78.5 48.2002 78.5 48.2002C79.1 48.3002 79.8 48.5002 80.4 48.8002C89.4 52.9002 97.3 73.9002 114.1 74.8002C130.5 75.7002 141.5 60.3002 151.6 49.6002C152.8 48.4002 152.9 46.8002 151.8 45.7002ZM85.9 46.1002C85.2 46.1002 84.6 45.5002 84.6 44.8002C84.6 44.1002 85.2 43.5002 85.9 43.5002C86.6 43.5002 87.2 44.1002 87.2 44.8002C87.2 45.5002 86.6 46.1002 85.9 46.1002ZM74.5 47.8002C75.4 47.7002 76.3 47.4002 77.1 46.9002C77.1 46.9002 77.1 46.9002 77.1 46.8002C76.6 42.8002 72.9 40.0002 68.9 40.6002C68 40.7002 67.1 41.0002 66.3 41.5002C66.3 41.5002 66.3 41.5002 66.3 41.6002C66.9 45.6002 70.6 48.3002 74.5 47.8002ZM75 49.1002C71.7 49.2002 69.1 52.0002 69.2 55.3002C69.2 55.3002 69.2 55.3002 69.2 55.4002C69.9 55.6002 70.6 55.8002 71.4 55.7002C74.7 55.6002 77.3 52.8002 77.2 49.5002C77.2 49.5002 77.2 49.5002 77.2 49.4002C76.6 49.2002 75.8 49.1002 75 49.1002ZM95.5 98.5002C94.3 98.5002 93.4 99.3002 93.4 100.5C93.4 101.6 94.3 102.5 95.5 102.5C96.7 102.5 97.6 101.6 97.6 100.5C97.6 99.4002 96.7 98.5002 95.5 98.5002ZM95.5 101.7C94.8 101.7 94.3 101.2 94.3 100.5C94.3 99.8002 94.8 99.3002 95.5 99.3002C96.2 99.3002 96.7 99.8002 96.7 100.5C96.7 101.2 96.2 101.7 95.5 101.7ZM85 98.5002C83.8 98.5002 82.9 99.3002 82.9 100.5C82.9 101.6 83.8 102.5 85 102.5C86.2 102.5 87.1 101.6 87.1 100.5C87.1 99.4002 86.2 98.5002 85 98.5002ZM85 101.7C84.3 101.7 83.8 101.2 83.8 100.5C83.8 99.8002 84.3 99.3002 85 99.3002C85.7 99.3002 86.2 99.8002 86.2 100.5C86.2 101.2 85.6 101.7 85 101.7ZM79.1 98.5002H77.4V102.5H79C80.2 102.5 81.1 101.7 81.1 100.5C81.2 99.3002 80.3 98.5002 79.1 98.5002ZM79.1 101.7H78.3V99.3002H79.1C79.8 99.3002 80.3 99.8002 80.3 100.5C80.3 101.2 79.8 101.7 79.1 101.7ZM90 98.5002H89.1V102.5H91.7V101.7H90V98.5002ZM122.3 98.5002L120.6 102.5H121.5L121.8 101.7H123.6L124 102.5H124.9L123.2 98.5002H122.3ZM122.1 101L122.7 99.5002L123.3 101H122.1ZM114.5 99.3002H115.7V102.5H116.6V99.3002H117.8V98.5002H114.5V99.3002ZM103 99.9002C103 99.0002 102.4 98.5002 101.4 98.5002H99.7V102.5H100.6V101.4H101.5L102.1 102.5H103.1L102.3 101.2C102.8 100.9 103 100.5 103 99.9002ZM101.4 100.6H100.6V99.3002H101.4C101.9 99.3002 102.2 99.5002 102.2 100C102.2 100.4 101.9 100.6 101.4 100.6ZM111.6 102.5H112.5V98.5002H111.6V102.5ZM128.9 100.9L127.8 98.5002H126.8V102.5H127.6V99.9002L128.6 102.1H129.2L130.2 99.9002V102.5H131V98.5002H130L128.9 100.9ZM136.2 100.9V100.2H134.3V99.3002H136.4V98.5002H133.4V102.5H136.4V101.8H134.2V100.9H136.2ZM107.5 99.6002C107.5 99.4002 107.7 99.3002 108 99.3002C108.3 99.3002 108.8 99.5002 109.2 99.7002L109.5 99.0002C109.1 98.7002 108.6 98.5002 108 98.5002C107.1 98.5002 106.5 98.9002 106.5 99.7002C106.5 101.1 108.6 100.7 108.6 101.4C108.6 101.6 108.4 101.8 108 101.8C107.6 101.8 107 101.6 106.6 101.2L106.2 101.9C106.6 102.3 107.3 102.5 107.9 102.5C108.8 102.5 109.4 102.1 109.4 101.3C109.5 99.9002 107.5 100.3 107.5 99.6002ZM138.2 99.3002H139.4V102.5H140.3V99.3002H141.5V98.5002H138.2V99.3002ZM52.5 87.2002H49.3C49.3 87.2002 49.3 87.2002 49.3 87.3002V87.4002H49.4C49.5 87.4002 49.5 87.4002 49.7 87.5002C49.8 87.5002 49.9 87.6002 50.1 87.7002C50.2 87.8002 50.3 87.9002 50.4 88.0002C50.5 88.1002 50.5 88.3002 50.5 88.5002V89.0002C50.5 89.3002 50.5 89.6002 50.5 89.9002C50.5 90.2002 50.4 90.5002 50.3 90.7002C50.2 90.9002 50.1 91.1002 49.8 91.3002C49.6 91.5002 49.3 91.5002 48.9 91.5002C48.5 91.5002 48.2 91.4002 47.9 91.1002C47.6 90.9002 47.4 90.5002 47.2 90.1002C47 89.7002 46.9 89.2002 46.8 88.7002C46.7 88.2002 46.7 87.6002 46.7 87.0002C46.7 86.4002 46.7 85.8002 46.8 85.3002C46.9 84.8002 47 84.3002 47.2 83.9002C47.4 83.5002 47.7 83.2002 48 82.9002C48.3 82.7002 48.7 82.5002 49.1 82.5002C49.5 82.5002 49.8 82.6002 50.1 82.7002C50.4 82.8002 50.6 83.0002 50.8 83.1002C51 83.3002 51.2 83.5002 51.3 83.7002C51.4 83.9002 51.5 84.1002 51.6 84.3002C51.6 84.3002 51.6 84.3002 51.7 84.4002C51.7 84.4002 51.7 84.4002 51.8 84.4002C51.8 84.4002 51.8 84.4002 51.9 84.4002C51.9 84.4002 51.9 84.4002 51.9 84.3002V82.8002C51.9 82.7002 51.9 82.7002 51.8 82.7002C51.8 82.7002 51.7 82.6002 51.6 82.6002C51.4 82.6002 51.2 82.6002 51 82.5002C50.8 82.4002 50.5 82.4002 50.2 82.3002C49.9 82.2002 49.5 82.2002 49.1 82.2002C48.6 82.2002 48.2 82.3002 47.7 82.4002C47.3 82.5002 46.9 82.7002 46.5 82.9002C46.1 83.1002 45.8 83.4002 45.5 83.7002C45.2 84.0002 44.9 84.3002 44.7 84.7002C44.5 85.1002 44.3 85.5002 44.2 85.9002C44.1 86.2002 44 86.7002 44 87.1002C44 87.8002 44.1 88.4002 44.4 89.0002C44.6 89.6002 45 90.1002 45.4 90.5002C45.8 90.9002 46.3 91.3002 46.9 91.5002C47.5 91.8002 48.1 91.9002 48.8 91.9002C49.2 91.9002 49.5 91.9002 49.8 91.8002C50.1 91.8002 50.4 91.7002 50.7 91.6002C51 91.6002 51.3 91.6002 51.6 91.5002C51.9 91.4002 52.2 91.3002 52.6 91.2002C52.7 91.2002 52.7 91.2002 52.7 91.1002C52.7 91.1002 52.7 91.0002 52.7 90.9002V87.4002C52.7 87.3002 52.7 87.3002 52.6 87.2002C52.6 87.2002 52.6 87.2002 52.5 87.2002ZM63 89.6002C63 89.6002 63 89.7002 62.9 89.8002C62.9 89.9002 62.8 90.0002 62.7 90.2002C62.6 90.3002 62.5 90.5002 62.4 90.6002C62.3 90.7002 62.1 90.9002 61.9 91.0002C61.7 91.1002 61.5 91.2002 61.3 91.3002C61.1 91.4002 60.8 91.4002 60.5 91.4002C60.3 91.4002 60 91.4002 59.9 91.4002C59.7 91.4002 59.6 91.4002 59.5 91.3002C59.4 91.3002 59.4 91.2002 59.3 91.1002C59.3 91.0002 59.3 90.9002 59.3 90.8002V83.6002C59.3 83.4002 59.3 83.2002 59.4 83.1002C59.5 83.0002 59.6 82.9002 59.7 82.8002C59.8 82.7002 59.9 82.7002 60.1 82.6002C60.2 82.6002 60.3 82.5002 60.4 82.5002H60.5V82.4002C60.5 82.4002 60.5 82.4002 60.5 82.3002H55.9C55.9 82.3002 55.9 82.3002 55.9 82.4002V82.5002H56C56.1 82.5002 56.1 82.5002 56.3 82.6002C56.4 82.6002 56.5 82.7002 56.7 82.8002C56.8 82.9002 56.9 83.0002 57 83.1002C57.1 83.2002 57.1 83.4002 57.1 83.6002V90.5002C57.1 90.7002 57.1 90.9002 57 91.0002C56.9 91.1002 56.8 91.2002 56.7 91.3002C56.6 91.4002 56.5 91.4002 56.3 91.5002C56.2 91.5002 56.1 91.5002 56 91.6002H55.9C55.9 91.6002 55.9 91.6002 55.9 91.7002C55.9 91.7002 55.9 91.7002 55.9 91.8002H63C63.1 91.8002 63.1 91.8002 63.1 91.7002V89.7002C63.1 89.6002 63.1 89.6002 63 89.6002C63 89.5002 63 89.5002 63 89.6002ZM75.2 84.6002C75 84.2002 74.8 83.9002 74.5 83.6002C74.2 83.3002 73.9 83.1002 73.5 82.8002C73.1 82.6002 72.8 82.4002 72.3 82.3002C71.9 82.2002 71.4 82.1002 71 82.1002C70.5 82.1002 70.1 82.2002 69.6 82.3002C69.2 82.4002 68.8 82.6002 68.4 82.8002C68 83.0002 67.7 83.3002 67.4 83.6002C67.1 83.9002 66.8 84.2002 66.6 84.6002C66.4 85.0002 66.2 85.4002 66.1 85.8002C66 86.2002 66 86.7002 66 87.1002C66 87.8002 66.1 88.4002 66.4 89.0002C66.6 89.6002 67 90.1002 67.4 90.5002C67.8 90.9002 68.3 91.3002 68.9 91.5002C69.5 91.8002 70.1 91.9002 70.8 91.9002C71.3 91.9002 71.7 91.8002 72.2 91.7002C72.6 91.6002 73 91.4002 73.4 91.2002C73.8 91.0002 74.1 90.7002 74.4 90.4002C74.7 90.1002 75 89.8002 75.2 89.4002C75.4 89.0002 75.6 88.6002 75.7 88.2002C75.8 87.8002 75.9 87.3002 75.9 86.9002C75.9 86.5002 75.8 86.0002 75.7 85.6002C75.5 85.3002 75.4 84.9002 75.2 84.6002ZM73 88.8002C72.9 89.3002 72.8 89.8002 72.6 90.2002C72.4 90.6002 72.2 90.9002 71.9 91.2002C71.6 91.4002 71.3 91.6002 70.9 91.6002C70.5 91.6002 70.2 91.5002 69.9 91.2002C69.6 91.0002 69.4 90.6002 69.2 90.2002C69 89.8002 68.9 89.3002 68.8 88.8002C68.7 88.3002 68.7 87.7002 68.7 87.1002C68.7 86.5002 68.7 85.9002 68.8 85.4002C68.9 84.9002 69 84.4002 69.2 84.0002C69.4 83.6002 69.6 83.3002 69.9 83.0002C70.2 82.8002 70.5 82.6002 70.9 82.6002C71.3 82.6002 71.6 82.7002 71.9 83.0002C72.2 83.2002 72.4 83.6002 72.6 84.0002C72.8 84.4002 72.9 84.9002 73 85.4002C73.1 85.9002 73.1 86.5002 73.1 87.1002C73.1 87.7002 73.1 88.3002 73 88.8002ZM79.8 91.0002C79.7 91.1002 79.6 91.2002 79.5 91.3002C79.4 91.4002 79.3 91.4002 79.1 91.5002C79 91.5002 78.9 91.5002 78.8 91.6002H78.7C78.7 91.6002 78.7 91.6002 78.7 91.7002C78.7 91.7002 78.7 91.7002 78.7 91.8002H83.4C84 91.8002 84.5 91.7002 85 91.6002C85.4 91.5002 85.8 91.3002 86 91.1002C86.3 90.9002 86.4 90.6002 86.6 90.3002C86.7 90.0002 86.8 89.7002 86.8 89.3002C86.8 89.0002 86.8 88.8002 86.7 88.6002C86.6 88.4002 86.5 88.1002 86.4 87.9002C86.3 87.7002 86.1 87.5002 85.8 87.3002C85.6 87.1002 85.2 87.0002 84.9 86.9002C85.2 86.8002 85.4 86.6002 85.6 86.5002C85.8 86.3002 85.9 86.2002 86 86.0002C86.1 85.8002 86.2 85.6002 86.2 85.4002C86.2 85.2002 86.3 85.0002 86.3 84.8002C86.3 84.5002 86.3 84.2002 86.2 83.9002C86.1 83.6002 86 83.4002 85.8 83.2002C85.6 83.0002 85.3 82.8002 85 82.7002C84.7 82.6002 84.3 82.5002 83.8 82.5002H78.9C78.9 82.5002 78.9 82.5002 78.9 82.6002V82.7002H79C79.1 82.7002 79.1 82.7002 79.3 82.8002C79.4 82.8002 79.5 82.9002 79.7 83.0002C79.8 83.1002 79.9 83.2002 80 83.3002C80.1 83.4002 80.1 83.6002 80.1 83.8002V90.5002C79.9 90.7002 79.9 90.8002 79.8 91.0002ZM82.2 84.2002C82.2 83.9002 82.2 83.7002 82.2 83.5002C82.2 83.3002 82.3 83.2002 82.3 83.0002C82.4 82.9002 82.4 82.8002 82.5 82.7002C82.6 82.6002 82.7 82.6002 82.9 82.6002C83.1 82.6002 83.3 82.7002 83.4 82.8002C83.5 82.9002 83.6 83.0002 83.7 83.2002C83.8 83.4002 83.8 83.6002 83.8 83.8002C83.8 84.0002 83.8 84.2002 83.8 84.4002C83.8 84.9002 83.8 85.2002 83.7 85.5002C83.6 85.8002 83.5 86.0002 83.4 86.2002C83.3 86.4002 83.1 86.5002 83 86.5002C82.9 86.6002 82.7 86.6002 82.6 86.6002C82.5 86.6002 82.4 86.6002 82.3 86.5002C82.2 86.4002 82.2 86.3002 82.2 86.2002V84.2002ZM82.2 87.5002C82.2 87.4002 82.2 87.3002 82.3 87.2002C82.4 87.1002 82.5 87.1002 82.6 87.1002C82.7 87.1002 82.8 87.1002 82.9 87.1002C83 87.1002 83.1 87.1002 83.2 87.2002C83.3 87.2002 83.4 87.3002 83.5 87.4002C83.6 87.5002 83.7 87.6002 83.8 87.8002C83.9 88.0002 84 88.2002 84 88.4002C84.1 88.6002 84.1 88.9002 84.1 89.3002C84.1 89.4002 84.1 89.5002 84.1 89.7002C84.1 89.8002 84.1 90.0002 84.1 90.2002C84.1 90.4002 84.1 90.5002 84 90.7002C84 90.9002 83.9 91.0002 83.8 91.1002C83.7 91.2002 83.6 91.3002 83.5 91.4002C83.4 91.5002 83.2 91.5002 83 91.5002C82.8 91.5002 82.7 91.5002 82.5 91.4002C82.4 91.3002 82.3 91.2002 82.2 91.1002C82.1 91.0002 82.1 90.8002 82.1 90.6002C82.1 90.4002 82.1 90.2002 82.1 89.9002V87.5002H82.2ZM99 91.5002C98.9 91.5002 98.7 91.4002 98.6 91.4002C98.5 91.3002 98.4 91.3002 98.2 91.2002C98.1 91.1002 98 91.0002 97.9 90.8002C97.8 90.7002 97.7 90.5002 97.7 90.3002C97.7 90.2002 97.6 90.0002 97.5 89.7002C97.4 89.4002 97.3 89.1002 97.2 88.7002C97.1 88.3002 96.9 87.9002 96.8 87.4002C96.6 86.9002 96.5 86.5002 96.3 86.0002C96.1 85.5002 96 85.1002 95.8 84.6002C95.7 84.2002 95.5 83.8002 95.4 83.4002C95.3 83.0002 95.2 82.8002 95.1 82.5002C95 82.3002 95 82.2002 95 82.1002C95 82.0002 94.9 82.0002 94.9 82.0002C94.9 82.0002 94.8 82.0002 94.7 82.0002C94.6 82.1002 94.5 82.1002 94.3 82.1002C94.2 82.1002 94 82.2002 93.9 82.2002C93.8 82.2002 93.6 82.3002 93.5 82.3002C93.4 82.3002 93.2 82.4002 93.1 82.4002C93 82.4002 93 82.4002 93 82.5002L92.9 82.6002C92.9 82.6002 92.9 82.7002 92.8 82.9002C92.7 83.1002 92.6 83.4002 92.5 83.8002C92.4 84.2002 92.2 84.6002 92.1 85.0002C92 85.5002 91.8 86.0002 91.7 86.5002C91.5 87.0002 91.4 87.4002 91.2 87.9002C91 88.4002 90.9 88.8002 90.8 89.2002C90.7 89.6002 90.6 89.9002 90.5 90.2002C90.4 90.5002 90.3 90.6002 90.3 90.7002C90.2 90.8002 90.2 91.0002 90.1 91.1002C90 91.2002 89.9 91.3002 89.8 91.4002C89.7 91.5002 89.6 91.5002 89.5 91.6002C89.4 91.6002 89.3 91.7002 89.1 91.7002C89.1 91.7002 89 91.7002 89 91.8002V91.9002C89 91.9002 89 91.9002 89 92.0002C89 92.0002 89 92.0002 89.1 92.0002H91.8C91.8 92.0002 91.8 92.0002 91.8 91.9002V91.8002C91.8 91.8002 91.8 91.8002 91.7 91.7002C91.6 91.7002 91.5 91.7002 91.4 91.6002C91.3 91.6002 91.2 91.5002 91.1 91.5002C91 91.4002 90.9 91.4002 90.9 91.2002C90.8 91.1002 90.8 91.0002 90.9 90.8002C90.9 90.8002 90.9 90.7002 91 90.6002C91 90.5002 91.1 90.4002 91.1 90.2002C91.1 90.0002 91.2 89.9002 91.2 89.7002C91.3 89.5002 91.3 89.4002 91.4 89.2002C91.5 89.0002 91.5 88.9002 91.5 88.8002C91.5 88.7002 91.6 88.6002 91.6 88.5002C91.6 88.5002 91.6 88.4002 91.7 88.4002H94.7C94.7 88.4002 94.8 88.4002 94.8 88.5002C94.8 88.5002 94.8 88.6002 94.9 88.7002C94.9 88.8002 95 88.9002 95 89.0002C95 89.1002 95.1 89.3002 95.1 89.4002C95.2 89.6002 95.2 89.7002 95.3 89.9002C95.3 90.0002 95.4 90.2002 95.4 90.3002C95.4 90.4002 95.5 90.5002 95.5 90.6002C95.6 90.8002 95.6 91.0002 95.5 91.1002C95.4 91.2002 95.4 91.4002 95.2 91.4002C95.1 91.5002 95 91.5002 94.9 91.6002C94.8 91.6002 94.7 91.7002 94.7 91.7002C94.7 91.7002 94.6 91.7002 94.6 91.8002C94.6 91.8002 94.6 91.8002 94.6 91.9002C94.6 91.9002 94.6 91.9002 94.6 92.0002C94.6 92.0002 94.6 92.0002 94.7 92.0002H99.2C99.2 92.0002 99.2 92.0002 99.2 91.9002C99.1 91.6002 99.1 91.6002 99 91.5002ZM94.5 87.8002H91.9C91.8 87.8002 91.8 87.8002 91.8 87.7002C91.9 87.5002 91.9 87.3002 92 87.1002C92.1 86.8002 92.2 86.6002 92.3 86.3002C92.4 86.0002 92.5 85.7002 92.6 85.4002C92.7 85.1002 92.8 84.8002 92.9 84.6002C93 84.4002 93 84.1002 93.1 84.0002C93.2 83.8002 93.2 83.8002 93.2 83.7002C93.2 83.7002 93.2 83.7002 93.3 83.7002C93.3 83.7002 93.3 83.7002 93.4 83.7002C93.4 83.7002 93.4 83.8002 93.5 83.9002C93.5 84.0002 93.6 84.2002 93.7 84.4002C93.8 84.6002 93.8 84.8002 93.9 85.0002C94 85.2002 94.1 85.5002 94.1 85.7002C94.2 85.9002 94.3 86.2002 94.3 86.4002C94.4 86.6002 94.4 86.9002 94.5 87.0002C94.6 87.2002 94.6 87.4002 94.7 87.5002C94.5 87.6002 94.5 87.7002 94.5 87.8002ZM102.4 91.0002C102.3 91.1002 102.2 91.2002 102.1 91.3002C102 91.4002 101.9 91.4002 101.7 91.5002C101.6 91.5002 101.5 91.5002 101.4 91.6002H101.3C101.3 91.6002 101.3 91.6002 101.3 91.7002C101.3 91.7002 101.3 91.7002 101.3 91.8002H108.5C108.6 91.8002 108.6 91.8002 108.6 91.7002V89.7002C108.6 89.6002 108.6 89.6002 108.5 89.6002C108.4 89.6002 108.4 89.6002 108.4 89.7002C108.4 89.7002 108.4 89.8002 108.3 89.9002C108.3 90.0002 108.2 90.1002 108.1 90.3002C108 90.4002 107.9 90.6002 107.8 90.7002C107.7 90.8002 107.5 91.0002 107.3 91.1002C107.1 91.2002 106.9 91.3002 106.7 91.4002C106.5 91.5002 106.2 91.5002 105.9 91.5002C105.7 91.5002 105.4 91.5002 105.3 91.5002C105.1 91.5002 105 91.5002 104.9 91.4002C104.8 91.4002 104.8 91.3002 104.7 91.2002C104.7 91.1002 104.7 91.0002 104.7 90.9002V83.7002C104.7 83.5002 104.7 83.3002 104.8 83.2002C104.9 83.1002 105 83.0002 105.1 82.9002C105.2 82.8002 105.3 82.8002 105.5 82.7002C105.6 82.7002 105.7 82.6002 105.8 82.6002H105.9V82.5002C105.9 82.5002 105.9 82.5002 105.9 82.4002H101.3C101.3 82.4002 101.3 82.4002 101.3 82.5002V82.6002H101.4C101.5 82.6002 101.5 82.6002 101.7 82.7002C101.8 82.7002 101.9 82.8002 102.1 82.9002C102.2 83.0002 102.3 83.1002 102.4 83.2002C102.5 83.3002 102.5 83.5002 102.5 83.7002V90.5002C102.6 90.7002 102.5 90.8002 102.4 91.0002ZM125.2 87.2002H122C122 87.2002 122 87.2002 122 87.3002V87.4002H122.1C122.2 87.4002 122.2 87.4002 122.4 87.5002C122.5 87.5002 122.6 87.6002 122.8 87.7002C122.9 87.8002 123 87.9002 123.1 88.0002C123.2 88.1002 123.2 88.3002 123.2 88.5002V89.0002C123.2 89.3002 123.2 89.6002 123.2 89.9002C123.2 90.2002 123.1 90.5002 123 90.7002C122.9 90.9002 122.8 91.1002 122.5 91.3002C122.3 91.5002 122 91.5002 121.6 91.5002C121.2 91.5002 120.9 91.4002 120.6 91.1002C120.3 90.9002 120.1 90.5002 119.9 90.1002C119.7 89.7002 119.6 89.2002 119.5 88.7002C119.4 88.2002 119.4 87.6002 119.4 87.0002C119.4 86.4002 119.4 85.8002 119.5 85.3002C119.6 84.8002 119.7 84.3002 119.9 83.9002C120.1 83.5002 120.4 83.2002 120.7 82.9002C121 82.7002 121.4 82.5002 121.8 82.5002C122.2 82.5002 122.5 82.6002 122.8 82.7002C123.1 82.8002 123.3 83.0002 123.5 83.1002C123.7 83.3002 123.9 83.5002 124 83.7002C124.1 83.9002 124.2 84.1002 124.3 84.3002C124.3 84.3002 124.3 84.3002 124.4 84.4002C124.4 84.4002 124.4 84.4002 124.5 84.4002C124.5 84.4002 124.5 84.4002 124.6 84.4002C124.6 84.4002 124.6 84.4002 124.6 84.3002V82.8002C124.6 82.7002 124.6 82.7002 124.5 82.7002C124.5 82.7002 124.4 82.6002 124.3 82.6002C124.2 82.5002 124 82.5002 123.8 82.4002C123.6 82.3002 123.3 82.3002 123 82.2002C122.7 82.1002 122.3 82.1002 121.9 82.1002C121.4 82.1002 121 82.2002 120.5 82.3002C120.1 82.4002 119.7 82.6002 119.3 82.8002C118.9 83.0002 118.6 83.3002 118.3 83.6002C118 83.9002 117.7 84.2002 117.5 84.6002C117.3 85.0002 117.1 85.4002 117 85.8002C116.9 86.2002 116.8 86.7002 116.8 87.1002C116.8 87.8002 116.9 88.4002 117.2 89.0002C117.4 89.6002 117.8 90.1002 118.2 90.5002C118.6 90.9002 119.1 91.3002 119.7 91.5002C120.3 91.8002 120.9 91.9002 121.6 91.9002C122 91.9002 122.3 91.9002 122.6 91.8002C122.9 91.8002 123.2 91.7002 123.5 91.6002C123.8 91.5002 124.1 91.4002 124.4 91.4002C124.7 91.3002 125 91.2002 125.4 91.1002C125.5 91.1002 125.5 91.1002 125.5 91.0002C125.5 91.0002 125.5 90.9002 125.5 90.8002V87.3002C125.5 87.2002 125.5 87.2002 125.4 87.1002C125.3 87.2002 125.3 87.2002 125.2 87.2002ZM132.1 83.1002C132.2 83.0002 132.3 82.9002 132.4 82.8002C132.5 82.7002 132.6 82.7002 132.8 82.6002C132.9 82.6002 133 82.5002 133.1 82.5002H133.2V82.4002C133.2 82.4002 133.2 82.4002 133.2 82.3002H128.6C128.6 82.3002 128.6 82.3002 128.6 82.4002V82.5002H128.7C128.8 82.5002 128.8 82.5002 129 82.6002C129.1 82.6002 129.2 82.7002 129.4 82.8002C129.5 82.9002 129.6 83.0002 129.7 83.1002C129.8 83.2002 129.8 83.4002 129.8 83.6002V90.5002C129.8 90.7002 129.8 90.9002 129.7 91.0002C129.6 91.1002 129.5 91.2002 129.4 91.3002C129.3 91.4002 129.2 91.4002 129 91.5002C128.9 91.5002 128.8 91.5002 128.7 91.6002H128.6C128.6 91.6002 128.6 91.6002 128.6 91.7002C128.6 91.7002 128.6 91.7002 128.6 91.8002H133.2C133.2 91.8002 133.2 91.8002 133.2 91.7002C133.2 91.7002 133.2 91.7002 133.2 91.6002H133.1C133 91.5002 133 91.5002 132.8 91.5002C132.7 91.5002 132.6 91.4002 132.4 91.3002C132.3 91.2002 132.2 91.1002 132.1 91.0002C132.1 90.8002 132 90.7002 132 90.5002V83.7002C132 83.4002 132.1 83.3002 132.1 83.1002ZM144.3 82.4002H141.6C141.6 82.4002 141.6 82.4002 141.6 82.5002V82.6002C141.6 82.6002 141.6 82.6002 141.7 82.7002C141.8 82.7002 141.9 82.7002 142 82.8002C142.1 82.8002 142.2 82.9002 142.3 82.9002C142.4 82.9002 142.5 83.0002 142.5 83.2002C142.6 83.3002 142.6 83.4002 142.5 83.6002C142.4 83.8002 142.4 84.0002 142.3 84.3002C142.2 84.6002 142.1 84.8002 142 85.2002C141.9 85.5002 141.8 85.8002 141.7 86.1002C141.6 86.4002 141.5 86.7002 141.4 87.0002C141.3 87.3002 141.2 87.6002 141.1 87.8002C141 88.0002 140.9 88.2002 140.9 88.3002C140.9 88.3002 140.9 88.4002 140.8 88.4002C140.8 88.4002 140.7 88.4002 140.7 88.3002C140.7 88.2002 140.6 88.0002 140.5 87.8002C140.4 87.6002 140.3 87.3002 140.2 87.1002C140.1 86.8002 140 86.5002 139.9 86.2002C139.8 85.9002 139.7 85.6002 139.6 85.3002C139.5 85.0002 139.4 84.7002 139.3 84.5002C139.2 84.2002 139.1 84.0002 139.1 83.9002C139.1 83.7002 139 83.6002 139.1 83.5002C139.1 83.4002 139.1 83.3002 139.2 83.2002C139.2 83.1002 139.3 83.0002 139.4 83.0002C139.5 82.9002 139.5 82.9002 139.6 82.9002C139.7 82.9002 139.7 82.8002 139.8 82.8002C139.9 82.8002 139.9 82.8002 139.9 82.8002C139.9 82.8002 140 82.8002 140 82.7002C140 82.7002 140 82.7002 140 82.6002C140 82.6002 140 82.6002 140 82.5002C140 82.5002 140 82.5002 139.9 82.5002H135.4C135.4 82.5002 135.4 82.5002 135.4 82.6002V82.7002C135.4 82.7002 135.4 82.7002 135.5 82.7002C135.8 82.8002 136 82.9002 136.2 83.1002C136.4 83.3002 136.6 83.6002 136.8 84.0002C136.9 84.2002 137 84.4002 137.1 84.7002C137.2 85.0002 137.3 85.3002 137.5 85.6002C137.6 86.0002 137.8 86.3002 137.9 86.7002C138 87.1002 138.2 87.5002 138.3 87.9002C138.5 88.3002 138.6 88.7002 138.7 89.1002C138.8 89.5002 139 89.9002 139.1 90.3002C139.2 90.7002 139.3 91.0002 139.4 91.3002C139.5 91.6002 139.6 91.8002 139.6 92.0002C139.6 92.1002 139.7 92.1002 139.7 92.1002C139.7 92.1002 139.8 92.1002 139.8 92.0002C139.9 91.8002 140 91.6002 140.1 91.3002C140.2 91.0002 140.3 90.6002 140.5 90.3002C140.6 89.9002 140.8 89.5002 141 89.1002C141.2 88.7002 141.3 88.2002 141.5 87.8002C141.7 87.4002 141.8 86.9002 142 86.5002C142.2 86.1002 142.3 85.7002 142.4 85.3002C142.5 84.9002 142.7 84.6002 142.8 84.3002C142.9 84.0002 143 83.8002 143.1 83.7002C143.2 83.4002 143.4 83.2002 143.6 83.1002C143.8 83.0002 144 82.9002 144.3 82.8002H144.4C144.4 82.8002 144.4 82.8002 144.4 82.7002C144.4 82.4002 144.4 82.4002 144.3 82.4002ZM150.1 83.1002C150.2 83.0002 150.3 82.9002 150.4 82.8002C150.5 82.7002 150.6 82.7002 150.8 82.6002C150.9 82.6002 151 82.5002 151.1 82.5002H151.2V82.4002C151.2 82.4002 151.2 82.4002 151.2 82.3002H146.6C146.6 82.3002 146.6 82.3002 146.6 82.4002V82.5002H146.7C146.8 82.5002 146.8 82.5002 147 82.6002C147.1 82.6002 147.2 82.7002 147.4 82.8002C147.5 82.9002 147.6 83.0002 147.7 83.1002C147.8 83.2002 147.8 83.4002 147.8 83.6002V90.5002C147.8 90.7002 147.8 90.9002 147.7 91.0002C147.6 91.1002 147.5 91.2002 147.4 91.3002C147.3 91.4002 147.2 91.4002 147 91.5002C146.9 91.5002 146.8 91.5002 146.7 91.6002H146.6C146.6 91.6002 146.6 91.6002 146.6 91.7002C146.6 91.7002 146.6 91.7002 146.6 91.8002H151.2C151.2 91.8002 151.2 91.8002 151.2 91.7002C151.2 91.7002 151.2 91.7002 151.2 91.6002H151.1C151 91.6002 151 91.6002 150.8 91.5002C150.7 91.5002 150.6 91.4002 150.4 91.3002C150.3 91.2002 150.2 91.1002 150.1 91.0002C150 90.9002 150 90.7002 150 90.5002V83.7002C150 83.4002 150 83.3002 150.1 83.1002ZM163.3 82.4002H160.6C160.6 82.4002 160.6 82.4002 160.6 82.5002V82.6002H160.7C160.8 82.6002 160.8 82.6002 161 82.7002C161.1 82.7002 161.2 82.8002 161.4 82.9002C161.5 83.0002 161.6 83.1002 161.7 83.2002C161.8 83.3002 161.8 83.5002 161.8 83.7002V88.0002H161.7C161.7 88.0002 161.6 87.9002 161.5 87.8002C161.4 87.7002 161.2 87.5002 161.1 87.3002C160.9 87.1002 160.7 86.8002 160.5 86.5002C160.3 86.2002 160 85.9002 159.8 85.6002C159.5 85.3002 159.3 85.0002 159 84.7002C158.7 84.4002 158.5 84.1002 158.3 83.8002C158.1 83.5002 157.9 83.3002 157.7 83.1002C157.5 82.9002 157.4 82.7002 157.3 82.6002C157.2 82.5002 157.1 82.5002 157 82.5002H153.9C153.9 82.5002 153.9 82.5002 153.9 82.6002V82.7002H154C154.1 82.7002 154.1 82.7002 154.3 82.8002C154.4 82.8002 154.5 82.9002 154.7 83.0002C154.8 83.1002 154.9 83.2002 155 83.3002C155.1 83.4002 155.1 83.6002 155.1 83.8002V90.5002C155.1 90.7002 155.1 90.9002 155 91.0002C154.9 91.1002 154.8 91.2002 154.7 91.3002C154.6 91.4002 154.5 91.4002 154.3 91.5002C154.2 91.5002 154.1 91.5002 154 91.6002H153.9C153.9 91.6002 153.9 91.6002 153.9 91.7002C153.9 91.7002 153.9 91.7002 153.9 91.8002H156.7C156.7 91.8002 156.7 91.8002 156.7 91.7002C156.7 91.7002 156.7 91.7002 156.7 91.6002H156.6C156.5 91.6002 156.5 91.6002 156.3 91.5002C156.2 91.5002 156.1 91.4002 155.9 91.3002C155.8 91.2002 155.7 91.1002 155.6 91.0002C155.5 90.9002 155.5 90.7002 155.5 90.5002V84.3002H155.6C155.6 84.3002 155.7 84.4002 155.8 84.5002C155.9 84.6002 156.1 84.8002 156.3 85.1002C156.5 85.3002 156.7 85.6002 157 85.9002C157.3 86.2002 157.5 86.5002 157.8 86.9002C158.1 87.3002 158.4 87.6002 158.7 88.0002C159 88.4002 159.3 88.7002 159.6 89.1002C159.9 89.5002 160.2 89.8002 160.4 90.1002C160.7 90.4002 160.9 90.7002 161.1 90.9002C161.3 91.1002 161.5 91.3002 161.6 91.5002C161.7 91.6002 161.8 91.7002 161.8 91.7002C161.9 91.8002 161.9 91.8002 162 91.8002C162.1 91.8002 162.1 91.7002 162.1 91.7002V83.7002C162.1 83.5002 162.1 83.3002 162.2 83.2002C162.3 83.1002 162.4 83.0002 162.5 82.9002C162.6 82.8002 162.7 82.8002 162.9 82.7002C163 82.7002 163.1 82.6002 163.2 82.6002H163.3V82.5002C163.3 82.5002 163.3 82.5002 163.3 82.4002ZM174.9 87.2002C174.9 87.2002 174.8 87.1002 174.7 87.1002H171.5C171.5 87.1002 171.5 87.1002 171.5 87.2002V87.3002H171.6C171.7 87.3002 171.7 87.3002 171.9 87.4002C172 87.4002 172.1 87.5002 172.3 87.6002C172.4 87.7002 172.5 87.8002 172.6 87.9002C172.7 88.0002 172.7 88.2002 172.7 88.4002V88.9002C172.7 89.2002 172.7 89.5002 172.7 89.8002C172.7 90.1002 172.6 90.4002 172.5 90.6002C172.4 90.8002 172.3 91.0002 172 91.2002C171.8 91.4002 171.5 91.4002 171.2 91.4002C170.8 91.4002 170.5 91.3002 170.2 91.0002C169.9 90.8002 169.7 90.4002 169.5 90.0002C169.3 89.6002 169.2 89.1002 169.1 88.6002C169 88.1002 169 87.5002 169 86.9002C169 86.3002 169 85.7002 169.1 85.2002C169.2 84.7002 169.3 84.2002 169.5 83.8002C169.7 83.4002 170 83.1002 170.3 82.8002C170.6 82.6002 171 82.4002 171.4 82.4002C171.8 82.4002 172.1 82.5002 172.4 82.6002C172.7 82.7002 172.9 82.9002 173.1 83.0002C173.3 83.2002 173.5 83.4002 173.6 83.6002C173.7 83.8002 173.8 84.0002 173.9 84.2002C173.9 84.2002 173.9 84.2002 174 84.3002C174 84.3002 174 84.3002 174.1 84.3002C174.1 84.3002 174.1 84.3002 174.2 84.3002C174.2 84.3002 174.2 84.3002 174.2 84.2002V82.7002C174.2 82.6002 174.2 82.6002 174.1 82.6002C174.1 82.6002 174 82.5002 173.9 82.5002C173.8 82.4002 173.6 82.4002 173.4 82.3002C173.2 82.2002 172.9 82.2002 172.6 82.1002C172.3 82.0002 171.9 82.0002 171.5 82.0002C171 82.0002 170.6 82.1002 170.1 82.2002C169.7 82.3002 169.3 82.5002 168.9 82.7002C168.5 82.9002 168.2 83.2002 167.9 83.5002C167.6 83.8002 167.3 84.1002 167.1 84.5002C166.9 84.9002 166.7 85.3002 166.6 85.7002C166.5 86.1002 166.4 86.6002 166.4 87.0002C166.4 87.7002 166.5 88.3002 166.8 88.9002C167 89.5002 167.4 90.0002 167.8 90.4002C168.2 90.8002 168.7 91.2002 169.3 91.4002C169.9 91.7002 170.5 91.8002 171.2 91.8002C171.6 91.8002 171.9 91.8002 172.2 91.7002C172.5 91.7002 172.8 91.6002 173.1 91.5002C173.4 91.4002 173.7 91.3002 174 91.3002C174.3 91.2002 174.6 91.1002 175 91.0002C175.1 91.0002 175.1 91.0002 175.1 90.9002C175.1 90.9002 175.1 90.8002 175.1 90.7002V87.2002C175 87.3002 175 87.3002 174.9 87.2002Z" fill="black"/>
</g>
</g>
</g>
<defs>
<clipPath id="clip0_1_195">
<rect width="190" height="85" fill="white" transform="translate(15 17.5)"/>
</clipPath>
<clipPath id="clip1_1_195">
<rect width="132" height="85" fill="white" transform="translate(44 17.5)"/>
</clipPath>
</defs>
</svg>
