<svg width="24" height="25" viewBox="0 0 24 25" fill="none" xmlns="http://www.w3.org/2000/svg">
<rect y="0.890625" width="24" height="24" rx="12" fill="#1E417B"/>
<path d="M12.3521 19.0826C11.5948 19.0826 10.9068 18.9386 10.2881 18.6506C9.66946 18.3626 9.14679 17.9786 8.72012 17.4986C8.29346 17.008 7.98946 16.4693 7.80812 15.8826L8.96012 15.4506C9.23746 16.2613 9.66946 16.88 10.2561 17.3066C10.8428 17.7226 11.5415 17.9306 12.3521 17.9306C12.8641 17.9306 13.3121 17.8506 13.6961 17.6906C14.0908 17.52 14.3948 17.2853 14.6081 16.9866C14.8215 16.688 14.9281 16.3413 14.9281 15.9466C14.9281 15.36 14.7681 14.9066 14.4481 14.5866C14.1281 14.2666 13.6695 14.0213 13.0721 13.8506L10.9281 13.2106C10.0855 12.9653 9.43479 12.5546 8.97613 11.9786C8.52812 11.4026 8.30412 10.7466 8.30412 10.0106C8.30412 9.38129 8.45879 8.82662 8.76812 8.34662C9.07746 7.85596 9.49879 7.47196 10.0321 7.19462C10.5761 6.91729 11.1895 6.77862 11.8721 6.77862C12.5868 6.77862 13.2268 6.91196 13.7921 7.17862C14.3681 7.43462 14.8535 7.77596 15.2481 8.20262C15.6428 8.62929 15.9255 9.10396 16.0961 9.62662L14.9761 10.0746C14.7201 9.37062 14.3201 8.83729 13.7761 8.47462C13.2428 8.11196 12.6135 7.93062 11.8881 7.93062C11.4295 7.93062 11.0241 8.01062 10.6721 8.17062C10.3308 8.33062 10.0641 8.55996 9.87213 8.85862C9.68013 9.15729 9.58413 9.50929 9.58413 9.91462C9.58413 10.4053 9.73879 10.848 10.0481 11.2426C10.3575 11.6266 10.8321 11.9146 11.4721 12.1066L13.3601 12.6666C14.2988 12.944 15.0081 13.344 15.4881 13.8666C15.9681 14.3893 16.2081 15.0453 16.2081 15.8346C16.2081 16.4746 16.0428 17.04 15.7121 17.5306C15.3921 18.0106 14.9388 18.3893 14.3521 18.6666C13.7761 18.944 13.1095 19.0826 12.3521 19.0826ZM11.6641 20.4906V5.37062H12.7841V20.4906H11.6641Z" fill="#F5F5F5"/>
</svg>
