<svg width="64" height="65" viewBox="0 0 64 65" fill="none" xmlns="http://www.w3.org/2000/svg">
<g clip-path="url(#clip0_5_665)">
<path d="M11.8 36.5L14.2 41.3C14.6 42.1 15.2 42.5 16 42.5H50C50.8 42.5 51.4 42.1 51.8 41.3L54.2 36.5H11.8Z" fill="#1B4079"/>
<path d="M8 34.5H10.8H55.2H58C59.2 34.5 60 33.7 60 32.5C60 31.3 59.2 30.5 58 30.5H56C55.6 19.9 47.8 11.1 37.8 8.9C37.8 8.5 38 8.1 38 7.5C38 4.7 35.8 2.5 33 2.5C30.2 2.5 28 4.7 28 7.5C28 8.1 28.2 8.5 28.2 8.9C18.2 11.1 10.6 19.9 10 30.5H8C6.8 30.5 6 31.3 6 32.5C6 33.7 6.8 34.5 8 34.5Z" fill="#1B4079"/>
<path d="M49.2 45.1C49 44.7 48.4 44.5 48 44.5C47.2 44.5 46.6 44.5 45.8 44.7L43.6 47.7C41.4 50.7 37.8 52.5 34 52.5H33.4H32H29.4H28C26.8 52.5 26 51.7 26 50.5C26 49.3 26.8 48.5 28 48.5H35C35.6 47.9 36 46.9 36 45.9V45.7C36 44.9 35.4 44.5 34.6 44.5H26.6C21.8 44.5 18 46.7 15.8 50.1L12.2 55.7C12 56.1 12 56.7 12.2 57.1L16.2 63.7C16.4 64.1 16.6 64.3 17 64.3H17.2C17.4 64.3 17.8 64.3 18 64.1C23 60.7 29 58.9 35 58.9C39.4 58.9 43.4 56.5 45.4 52.7L49 46.3C49.4 46.1 49.4 45.5 49.2 45.1Z" fill="#1B4079"/>
</g>
<defs>
<clipPath id="clip0_5_665">
<rect width="64" height="64" fill="white" transform="translate(0 0.5)"/>
</clipPath>
</defs>
</svg>
