<svg width="64" height="61" viewBox="0 0 64 61" fill="none" xmlns="http://www.w3.org/2000/svg">
<path d="M58 12.5H48V6.5C48 3.1875 45.3125 0.5 42 0.5H22C18.6875 0.5 16 3.1875 16 6.5V12.5H6C2.6875 12.5 0 15.1875 0 18.5V54.5C0 57.8125 2.6875 60.5 6 60.5H58C61.3125 60.5 64 57.8125 64 54.5V18.5C64 15.1875 61.3125 12.5 58 12.5ZM24 8.5H40V12.5H24V8.5ZM44 39.5C44 40.05 43.55 40.5 43 40.5H36V47.5C36 48.05 35.55 48.5 35 48.5H29C28.45 48.5 28 48.05 28 47.5V40.5H21C20.45 40.5 20 40.05 20 39.5V33.5C20 32.95 20.45 32.5 21 32.5H28V25.5C28 24.95 28.45 24.5 29 24.5H35C35.55 24.5 36 24.95 36 25.5V32.5H43C43.55 32.5 44 32.95 44 33.5V39.5Z" fill="#1B4079"/>
</svg>
