<svg width="350" height="83" viewBox="0 0 350 83" fill="none" xmlns="http://www.w3.org/2000/svg">
<path d="M27.0464 63.8453C11.0292 49.8198 13.5853 30.2858 8.73669 16.311C6.08709 19.6926 3.98396 23.4686 2.50389 27.5016L9.52914 28.1524C10.0981 28.2054 10.0784 29.0426 9.50717 29.0683L1.85538 29.4085C1.61042 30.1964 1.38845 30.9939 1.18945 31.801L6.67828 32.0184C7.24951 32.0411 7.27376 32.8783 6.7048 32.9344L0.806859 33.5116C0.268207 36.1988 -0.00207023 38.9327 1.19387e-05 41.6733C1.19387e-05 64.4128 18.434 82.8467 41.1735 82.8467H41.4576C39.4242 78.1458 35.2785 71.0524 27.0464 63.8453ZM9.73748 60.0376C3.85848 49.1561 3.13118 42.0392 3.13118 39.1846C3.13133 39.0504 3.1685 38.9189 3.23859 38.8046C3.30869 38.6902 3.40899 38.5974 3.52846 38.5363C3.64792 38.4753 3.78191 38.4484 3.91567 38.4587C4.04942 38.4689 4.17775 38.5159 4.28653 38.5944C6.73359 40.3498 9.66021 41.7006 12.749 43.0643C14.8672 50.8047 18.4522 58.5322 25.9502 65.0991C27.8235 66.7351 29.5981 68.4806 31.2648 70.3266C21.9463 65.4022 15.1975 56.9398 11.4451 50.932C8.31849 45.9318 9.12307 48.7001 10.4792 51.3221C17.1559 64.2393 27.6449 71.0956 34.3687 74.0836C34.8773 74.7573 35.3518 75.4184 35.7922 76.067C28.6495 75.2601 16.2445 72.082 9.73748 60.0376Z" fill="#4D7C8A"/>
<path d="M77.0012 21.3728L61.2036 19.5431C60.5544 19.4522 60.6225 18.4946 61.2794 18.4961L75.2291 18.5249C74.2128 17.0341 73.0995 15.6118 71.8964 14.2672L49.7441 12.5959C49.0918 12.5361 49.1138 11.5762 49.7676 11.5459L68.4539 10.8375C60.9345 4.16488 51.2264 0.486162 41.1734 0.500039C29.1275 0.500039 18.2938 5.67144 10.7632 13.9157C15.3702 15.315 24.5341 19.2719 36.558 30.3094C52.1033 44.5804 51.2555 64.6417 49.6328 74.5353C49.6328 74.5474 49.6275 74.5701 49.6237 74.6019C49.2093 74.7459 48.735 74.8876 48.1933 75.0201C48.1933 74.8095 48.1865 74.6118 48.1759 74.4777C47.3971 64.972 42.3166 44.4607 23.9993 28.2518C22.3121 26.7586 20.5143 25.4653 20.0415 25.4653C19.6135 25.4653 20.2764 26.5298 23.1045 29.4761C33.0291 39.8105 47.5933 59.9976 44.4507 82.7181C65.6576 81.0514 82.3468 63.3099 82.3468 41.6735C82.3581 34.5572 80.5158 27.5606 77.0012 21.3728ZM47.0698 41.475C47.6403 35.6763 46.9811 25.0433 39.9544 14.8725C38.5945 12.9028 36.9187 11.2732 39.3074 15.415C42.3726 20.7296 46.1463 29.5594 45.5766 38.7491C43.431 35.1597 40.7725 31.903 37.6854 29.0821C36.1666 27.6881 34.6514 26.3671 33.1397 25.1191C32.0844 18.1529 33.9731 11.3413 33.2064 5.59492C33.1909 5.4869 33.2055 5.37668 33.2488 5.27648C33.292 5.17628 33.3622 5.09002 33.4515 5.02726C33.5407 4.96449 33.6457 4.92768 33.7546 4.9209C33.8635 4.91412 33.9722 4.93763 34.0686 4.98884C36.1141 6.076 40.9249 9.30717 46.4713 17.6567C52.8351 27.2321 49.9714 37.712 47.788 42.9697C47.5582 42.4672 47.3188 41.9689 47.0698 41.475ZM76.6019 42.3015C77.5671 42.8826 78.1012 43.5357 78.3921 44.0311C78.4259 44.089 78.4411 44.1559 78.4356 44.2228C78.4301 44.2896 78.4041 44.3531 78.3613 44.4046C78.3184 44.4562 78.2607 44.4933 78.196 44.5109C78.1313 44.5285 78.0628 44.5258 77.9997 44.5031C77.4867 44.3269 76.9507 44.2268 76.4087 44.2062C76.1375 45.2304 75.5541 46.1668 74.4549 47.0025L74.0003 46.4047C74.8571 45.7532 75.3519 45.0274 75.611 44.2243C72.3957 44.5054 67.8076 47.3252 63.1643 57.121C58.4353 67.0835 54.6231 71.4647 51.4487 73.7042C52.1813 68.6934 52.6389 61.4734 51.1707 53.7527C50.537 50.3584 49.5353 47.0433 48.1835 43.866C48.7546 43.3163 49.2824 42.7233 49.7623 42.0924C52.1525 38.9946 54.1352 34.7088 62.5234 34.2361C70.9115 33.7634 73.7215 41.2295 73.7215 41.2295C74.4473 41.3742 75.155 41.5977 75.8322 41.8962C75.7799 41.0757 75.6344 40.1931 75.4784 39.2446C75.4339 38.9739 75.389 38.6961 75.3435 38.4113C70.1191 38.3499 70.2297 33.0012 70.2297 33.0012C72.9919 33.6361 74.4139 35.2361 75.067 36.2695C75.017 35.7074 74.9874 35.1278 74.9912 34.5338C74.2905 33.7512 72.8851 31.9315 73.1684 30.1905C73.2819 29.5507 73.3527 28.904 73.3806 28.2548C73.3806 28.1897 73.3806 28.1298 73.3806 28.0745C73.3806 27.6056 73.3109 27.4896 73.3109 27.4896C73.3109 27.4896 73.476 27.5465 73.7321 27.6669C73.8026 27.7003 73.8836 27.7381 73.9639 27.7813C74.67 28.148 75.7602 28.8761 76.2579 30.0541C76.9481 31.6845 76.7587 33.1762 75.7405 34.4952C75.7299 35.7346 75.8701 36.9195 76.0382 38.0234C76.4989 36.912 77.6678 34.9369 80.2581 34.5081C80.2581 34.5081 80.5157 39.9431 76.364 40.0492C76.4911 40.7941 76.5706 41.5465 76.6019 42.3015Z" fill="#1B4079"/>
<path d="M118.346 37.0505C118.346 36.5985 118.276 36.1929 118.137 35.8336C118.01 35.4628 117.766 35.1267 117.407 34.8254C117.048 34.5125 116.544 34.2055 115.895 33.9041C115.246 33.6028 114.406 33.29 113.374 32.9655C112.227 32.5946 111.138 32.1774 110.106 31.7139C109.087 31.2504 108.183 30.7115 107.395 30.0973C106.618 29.4715 106.004 28.7472 105.552 27.9244C105.112 27.1016 104.891 26.1456 104.891 25.0562C104.891 24.0017 105.123 23.0456 105.587 22.1881C106.05 21.3189 106.699 20.5773 107.534 19.9631C108.368 19.3373 109.353 18.8563 110.489 18.5203C111.636 18.1842 112.893 18.0162 114.261 18.0162C116.127 18.0162 117.755 18.3522 119.145 19.0244C120.536 19.6965 121.614 20.6178 122.379 21.7883C123.155 22.9587 123.543 24.2972 123.543 25.8037H118.363C118.363 25.062 118.207 24.4131 117.894 23.8568C117.593 23.289 117.129 22.8428 116.503 22.5183C115.889 22.1939 115.113 22.0316 114.174 22.0316C113.27 22.0316 112.517 22.1707 111.914 22.4488C111.312 22.7154 110.86 23.0804 110.558 23.5439C110.257 23.9959 110.106 24.5058 110.106 25.0736C110.106 25.5024 110.211 25.8906 110.419 26.2383C110.639 26.5859 110.964 26.9104 111.393 27.2117C111.821 27.513 112.349 27.797 112.974 28.0635C113.6 28.33 114.325 28.5908 115.147 28.8457C116.526 29.2629 117.737 29.7323 118.78 30.2537C119.835 30.7752 120.716 31.3604 121.423 32.0094C122.129 32.6584 122.663 33.3942 123.022 34.217C123.381 35.0398 123.561 35.9727 123.561 37.0157C123.561 38.1166 123.346 39.1016 122.918 39.9708C122.489 40.8399 121.869 41.5758 121.058 42.1784C120.246 42.781 119.279 43.2388 118.155 43.5517C117.031 43.8646 115.773 44.021 114.383 44.021C113.131 44.021 111.897 43.8588 110.68 43.5343C109.463 43.1982 108.356 42.6941 107.36 42.022C106.375 41.3498 105.587 40.4923 104.996 39.4493C104.405 38.4063 104.109 37.1721 104.109 35.7467H109.341C109.341 36.5348 109.463 37.2011 109.707 37.7458C109.95 38.2904 110.292 38.7308 110.732 39.0669C111.184 39.4029 111.717 39.6463 112.331 39.797C112.957 39.9476 113.641 40.0229 114.383 40.0229C115.286 40.0229 116.028 39.8955 116.608 39.6405C117.199 39.3856 117.633 39.0321 117.911 38.5801C118.201 38.1282 118.346 37.6183 118.346 37.0505ZM137.397 22.6922L130.514 43.6733H124.969L134.373 18.3638H137.902L137.397 22.6922ZM143.116 43.6733L136.215 22.6922L135.659 18.3638H139.223L148.679 43.6733H143.116ZM142.804 34.2518V38.3368H129.436V34.2518H142.804ZM153.407 18.3638H157.822L164.324 36.9462L170.825 18.3638H175.24L166.097 43.6733H162.551L153.407 18.3638ZM151.026 18.3638H155.424L156.223 36.4768V43.6733H151.026V18.3638ZM173.224 18.3638H177.639V43.6733H172.424V36.4768L173.224 18.3638ZM205.243 37.2764C205.243 36.6854 205.15 36.1639 204.965 35.712C204.791 35.2484 204.478 34.8312 204.026 34.4604C203.586 34.0896 202.972 33.7361 202.184 33.4C201.407 33.064 200.422 32.7221 199.228 32.3745C197.977 32.0036 196.847 31.5922 195.839 31.1403C194.831 30.6767 193.967 30.1494 193.249 29.5584C192.53 28.9674 191.98 28.2895 191.597 27.5246C191.215 26.7598 191.024 25.8848 191.024 24.8998C191.024 23.9148 191.227 23.0051 191.632 22.1707C192.038 21.3363 192.617 20.612 193.37 19.9978C194.135 19.372 195.045 18.8853 196.1 18.5377C197.154 18.19 198.33 18.0162 199.628 18.0162C201.529 18.0162 203.14 18.3812 204.461 19.1113C205.793 19.8298 206.807 20.7743 207.503 21.9447C208.198 23.1036 208.546 24.3435 208.546 25.6647H205.208C205.208 24.7144 205.005 23.8742 204.6 23.1441C204.194 22.4025 203.58 21.823 202.757 21.4058C201.934 20.9771 200.891 20.7627 199.628 20.7627C198.435 20.7627 197.45 20.9423 196.673 21.3015C195.897 21.6608 195.317 22.1475 194.935 22.7617C194.564 23.3759 194.379 24.077 194.379 24.865C194.379 25.3981 194.489 25.8848 194.709 26.3252C194.941 26.754 195.294 27.1538 195.769 27.5246C196.256 27.8955 196.87 28.2373 197.612 28.5502C198.365 28.8631 199.263 29.1644 200.306 29.4541C201.743 29.8597 202.983 30.3117 204.026 30.81C205.069 31.3083 205.927 31.8703 206.599 32.4961C207.283 33.1103 207.787 33.8114 208.111 34.5995C208.447 35.3759 208.615 36.2566 208.615 37.2417C208.615 38.2731 208.407 39.2059 207.989 40.0403C207.572 40.8747 206.975 41.5874 206.199 42.1784C205.423 42.7694 204.49 43.2272 203.4 43.5517C202.323 43.8646 201.117 44.021 199.785 44.021C198.614 44.021 197.461 43.8588 196.326 43.5343C195.201 43.2098 194.176 42.7231 193.249 42.0741C192.333 41.4252 191.597 40.6255 191.041 39.6753C190.496 38.7134 190.224 37.6009 190.224 36.3378H193.562C193.562 37.2069 193.73 37.9544 194.066 38.5801C194.402 39.1943 194.86 39.7042 195.439 40.1098C196.03 40.5154 196.696 40.8167 197.438 41.0138C198.191 41.1992 198.974 41.2919 199.785 41.2919C200.955 41.2919 201.946 41.1296 202.757 40.8052C203.568 40.4807 204.183 40.0171 204.6 39.4145C205.029 38.8119 205.243 38.0992 205.243 37.2764ZM222.261 20.6062L213.882 43.6733H210.458L220.105 18.3638H222.313L222.261 20.6062ZM229.284 43.6733L220.888 20.6062L220.835 18.3638H223.043L232.725 43.6733H229.284ZM228.849 34.304V37.0505H214.63V34.304H228.849ZM252.646 29.2455V31.9746H238.948V29.2455H252.646ZM239.47 18.3638V43.6733H236.115V18.3638H239.47ZM255.566 18.3638V43.6733H252.229V18.3638H255.566ZM281.015 30.219V31.8182C281.015 33.7187 280.777 35.4223 280.302 36.9288C279.827 38.4353 279.143 39.7158 278.251 40.7704C277.359 41.825 276.287 42.6304 275.035 43.1866C273.795 43.7429 272.405 44.021 270.863 44.021C269.368 44.021 267.995 43.7429 266.744 43.1866C265.504 42.6304 264.426 41.825 263.51 40.7704C262.607 39.7158 261.905 38.4353 261.407 36.9288C260.909 35.4223 260.66 33.7187 260.66 31.8182V30.219C260.66 28.3184 260.903 26.6207 261.39 25.1258C261.888 23.6193 262.589 22.3387 263.493 21.2842C264.397 20.218 265.469 19.4068 266.709 18.8506C267.96 18.2943 269.334 18.0162 270.829 18.0162C272.37 18.0162 273.761 18.2943 275.001 18.8506C276.252 19.4068 277.324 20.218 278.216 21.2842C279.12 22.3387 279.81 23.6193 280.285 25.1258C280.772 26.6207 281.015 28.3184 281.015 30.219ZM277.695 31.8182V30.1842C277.695 28.6777 277.538 27.345 277.226 26.1861C276.924 25.0273 276.478 24.0538 275.887 23.2658C275.296 22.4778 274.572 21.881 273.714 21.4754C272.868 21.0698 271.906 20.867 270.829 20.867C269.786 20.867 268.841 21.0698 267.995 21.4754C267.161 21.881 266.442 22.4778 265.84 23.2658C265.249 24.0538 264.791 25.0273 264.467 26.1861C264.142 27.345 263.98 28.6777 263.98 30.1842V31.8182C263.98 33.3363 264.142 34.6806 264.467 35.851C264.791 37.0099 265.255 37.9891 265.857 38.7887C266.471 39.5768 267.196 40.1736 268.03 40.5792C268.876 40.9848 269.82 41.1876 270.863 41.1876C271.953 41.1876 272.92 40.9848 273.766 40.5792C274.612 40.1736 275.325 39.5768 275.904 38.7887C276.495 37.9891 276.942 37.0099 277.243 35.851C277.544 34.6806 277.695 33.3363 277.695 31.8182ZM294.904 18.3638V43.6733H291.601V18.3638H294.904ZM303.039 18.3638V21.1103H283.483V18.3638H303.039ZM306.794 18.3638H315.172C317.073 18.3638 318.678 18.6535 319.988 19.233C321.309 19.8124 322.311 20.67 322.995 21.8056C323.69 22.9297 324.038 24.3146 324.038 25.9602C324.038 27.119 323.8 28.1794 323.325 29.1412C322.861 30.0915 322.189 30.9027 321.309 31.5748C320.439 32.2354 319.396 32.7279 318.18 33.0524L317.241 33.4174H309.367L309.332 30.6883H315.277C316.482 30.6883 317.484 30.4797 318.284 30.0625C319.084 29.6337 319.686 29.0601 320.092 28.3416C320.497 27.6231 320.7 26.8293 320.7 25.9602C320.7 24.9867 320.509 24.135 320.127 23.4049C319.744 22.6748 319.142 22.1127 318.319 21.7187C317.508 21.3131 316.459 21.1103 315.172 21.1103H310.149V43.6733H306.794V18.3638ZM321.587 43.6733L315.433 32.2006L318.927 32.1832L325.168 43.4647V43.6733H321.587ZM338.1 20.6062L329.722 43.6733H326.298L335.945 18.3638H338.153L338.1 20.6062ZM345.123 43.6733L336.727 20.6062L336.675 18.3638H338.883L348.565 43.6733H345.123ZM344.689 34.304V37.0505H330.469V34.304H344.689Z" fill="#1B4079"/>
<path d="M106.376 56.636V68.6733H104.781V56.636H106.376ZM111.419 62.0511V63.3574H106.029V62.0511H111.419ZM112.238 56.636V57.9422H106.029V56.636H112.238ZM139.154 62.2744V63.035C139.154 63.9389 139.041 64.7491 138.815 65.4656C138.589 66.1821 138.264 66.7911 137.839 67.2927C137.415 67.7942 136.905 68.1773 136.31 68.4419C135.72 68.7064 135.059 68.8387 134.325 68.8387C133.614 68.8387 132.961 68.7064 132.366 68.4419C131.776 68.1773 131.264 67.7942 130.828 67.2927C130.398 66.7911 130.065 66.1821 129.828 65.4656C129.591 64.7491 129.473 63.9389 129.473 63.035V62.2744C129.473 61.3705 129.588 60.563 129.82 59.852C130.057 59.1355 130.39 58.5265 130.82 58.0249C131.25 57.5179 131.76 57.132 132.35 56.8675C132.945 56.6029 133.598 56.4707 134.309 56.4707C135.042 56.4707 135.703 56.6029 136.293 56.8675C136.888 57.132 137.398 57.5179 137.823 58.0249C138.252 58.5265 138.58 59.1355 138.806 59.852C139.038 60.563 139.154 61.3705 139.154 62.2744ZM137.575 63.035V62.2578C137.575 61.5413 137.5 60.9075 137.351 60.3563C137.208 59.8052 136.996 59.3422 136.715 58.9674C136.434 58.5926 136.089 58.3088 135.681 58.1159C135.279 57.923 134.822 57.8265 134.309 57.8265C133.813 57.8265 133.364 57.923 132.961 58.1159C132.565 58.3088 132.223 58.5926 131.936 58.9674C131.655 59.3422 131.437 59.8052 131.283 60.3563C131.129 60.9075 131.052 61.5413 131.052 62.2578V63.035C131.052 63.757 131.129 64.3963 131.283 64.953C131.437 65.5042 131.658 65.9699 131.944 66.3502C132.237 66.725 132.581 67.0088 132.978 67.2017C133.38 67.3946 133.829 67.4911 134.325 67.4911C134.844 67.4911 135.304 67.3946 135.706 67.2017C136.108 67.0088 136.447 66.725 136.723 66.3502C137.004 65.9699 137.216 65.5042 137.36 64.953C137.503 64.3963 137.575 63.757 137.575 63.035ZM164.176 56.636H165.763V64.7794C165.763 65.6833 165.562 66.4356 165.16 67.0364C164.758 67.6372 164.223 68.0891 163.556 68.3922C162.895 68.6899 162.175 68.8387 161.398 68.8387C160.583 68.8387 159.844 68.6899 159.183 68.3922C158.527 68.0891 158.006 67.6372 157.62 67.0364C157.24 66.4356 157.05 65.6833 157.05 64.7794V56.636H158.629V64.7794C158.629 65.4077 158.744 65.9258 158.976 66.3337C159.207 66.7415 159.53 67.0447 159.943 67.2431C160.362 67.4415 160.847 67.5407 161.398 67.5407C161.955 67.5407 162.44 67.4415 162.853 67.2431C163.272 67.0447 163.597 66.7415 163.829 66.3337C164.06 65.9258 164.176 65.4077 164.176 64.7794V56.636ZM193.274 56.636V68.6733H191.671L185.611 59.389V68.6733H184.015V56.636H185.611L191.695 65.9451V56.636H193.274ZM215.106 68.6733H212.592L212.609 67.3754H215.106C215.965 67.3754 216.682 67.1962 217.255 66.838C217.828 66.4742 218.258 65.9671 218.545 65.3168C218.837 64.6609 218.983 63.8948 218.983 63.0184V62.2826C218.983 61.5937 218.9 60.9819 218.735 60.4473C218.57 59.9071 218.327 59.4524 218.007 59.0832C217.688 58.7084 217.296 58.4245 216.834 58.2316C216.376 58.0387 215.85 57.9422 215.254 57.9422H212.543V56.636H215.254C216.043 56.636 216.762 56.7683 217.412 57.0328C218.063 57.2919 218.622 57.6694 219.091 58.1655C219.565 58.656 219.928 59.2513 220.182 59.9512C220.435 60.6457 220.562 61.4283 220.562 62.2992V63.0184C220.562 63.8893 220.435 64.6747 220.182 65.3746C219.928 66.0691 219.562 66.6616 219.082 67.1521C218.608 67.6427 218.035 68.0202 217.363 68.2848C216.696 68.5438 215.943 68.6733 215.106 68.6733ZM213.444 56.636V68.6733H211.848V56.636H213.444ZM242.98 57.7025L238.995 68.6733H237.367L241.955 56.636H243.005L242.98 57.7025ZM246.32 68.6733L242.327 57.7025L242.302 56.636H243.352L247.957 68.6733H246.32ZM246.114 64.2172V65.5235H239.351V64.2172H246.114ZM268.689 56.636V68.6733H267.118V56.636H268.689ZM272.558 56.636V57.9422H263.257V56.636H272.558ZM291.802 56.636V68.6733H290.206V56.636H291.802ZM319.718 62.2744V63.035C319.718 63.9389 319.605 64.7491 319.379 65.4656C319.153 66.1821 318.828 66.7911 318.403 67.2927C317.979 67.7942 317.469 68.1773 316.874 68.4419C316.284 68.7064 315.623 68.8387 314.89 68.8387C314.179 68.8387 313.525 68.7064 312.93 68.4419C312.34 68.1773 311.828 67.7942 311.392 67.2927C310.963 66.7911 310.629 66.1821 310.392 65.4656C310.155 64.7491 310.037 63.9389 310.037 63.035V62.2744C310.037 61.3705 310.152 60.563 310.384 59.852C310.621 59.1355 310.954 58.5265 311.384 58.0249C311.814 57.5179 312.324 57.132 312.914 56.8675C313.509 56.6029 314.162 56.4707 314.873 56.4707C315.606 56.4707 316.267 56.6029 316.857 56.8675C317.452 57.132 317.962 57.5179 318.387 58.0249C318.817 58.5265 319.145 59.1355 319.371 59.852C319.602 60.563 319.718 61.3705 319.718 62.2744ZM318.139 63.035V62.2578C318.139 61.5413 318.064 60.9075 317.915 60.3563C317.772 59.8052 317.56 59.3422 317.279 58.9674C316.998 58.5926 316.653 58.3088 316.245 58.1159C315.843 57.923 315.386 57.8265 314.873 57.8265C314.377 57.8265 313.928 57.923 313.525 58.1159C313.129 58.3088 312.787 58.5926 312.5 58.9674C312.219 59.3422 312.001 59.8052 311.847 60.3563C311.693 60.9075 311.616 61.5413 311.616 62.2578V63.035C311.616 63.757 311.693 64.3963 311.847 64.953C312.001 65.5042 312.222 65.9699 312.509 66.3502C312.801 66.725 313.145 67.0088 313.542 67.2017C313.944 67.3946 314.394 67.4911 314.89 67.4911C315.408 67.4911 315.868 67.3946 316.27 67.2017C316.673 67.0088 317.012 66.725 317.287 66.3502C317.568 65.9699 317.78 65.5042 317.924 64.953C318.067 64.3963 318.139 63.757 318.139 63.035ZM347.113 56.636V68.6733H345.509L339.449 59.389V68.6733H337.853V56.636H339.449L345.534 65.9451V56.636H347.113Z" fill="#1B4079"/>
</svg>
